<?xml version="1.0" standalone="no"?>
<!DOCTYPE svg PUBLIC "-//W3C//DTD SVG 1.1//EN" "http://www.w3.org/Graphics/SVG/1.1/DTD/svg11.dtd" >
<svg xmlns="http://www.w3.org/2000/svg">
<metadata></metadata>
<defs>
<font id="lhf_stratfordregular" horiz-adv-x="438" >
<font-face units-per-em="2048" ascent="1638" descent="-410" />
<missing-glyph horiz-adv-x="500" />
<glyph horiz-adv-x="2048" />
<glyph horiz-adv-x="2048" />
<glyph unicode="&#xd;" />
<glyph unicode=" " />
<glyph unicode="!" horiz-adv-x="311" d="M16 1280q204 88 265 127q-18 -55 -23 -164l-29 -788q0 -20 -21.5 -49t-45.5 -41l-103 -54l-18 811q-2 80 -25 158zM41 -16q16 39 10 174q-2 59 35 88l147 84l-4 -62v-106q0 -78 -47 -103z" />
<glyph unicode="&#x22;" horiz-adv-x="450" d="M25 879v286q0 41 21.5 87t45.5 59l103 51l2 -266q0 -47 -22.5 -99.5t-51.5 -66.5zM248 891l2 289q0 41 20.5 86t44.5 57l105 55v-268q0 -49 -21.5 -100.5t-50.5 -65.5z" />
<glyph unicode="#" horiz-adv-x="1810" d="M-33 1118q0 27 94 94l172 125q80 45 154 43l154 -6q33 -2 32 -31v-165l140 202q137 -16 252.5 -99t115.5 -165v-883l88 -53q55 -35 93 -26l-172 -160q-16 -14 -46 -14q-35 0 -90 28l-186 98q51 59 51 148v762q0 37 -50 72.5t-138 56.5q-18 4 -38 -31t-20 -98v-684 q0 -72 -66.5 -209t-146.5 -232q-104 -123 -118 -122l-9 4q29 27 53.5 99.5t24.5 131.5v1155l-229 10q-61 -12 -111 -61zM1143 1198q125 12 211 57q53 29 159 125q193 -133 297 -180q-37 -41 -36 -76l-2 -430l30 -37q-59 -27 -152.5 -94t-144.5 -123q-16 -16 -43 -16 q-31 0 -71 22l-244 138q37 29 37 121v366q0 102 -41 127zM1395 100l41 133q43 0 80 -22q27 -16 48 -46t21 -50q0 -27 -16 -64l-27 -61q-35 2 -76 19.5t-56 38.5t-15 52zM1395 698q0 -35 59 -73l82 -41q23 23 23 71v473l-134 89l-8 2q-23 0 -22 -29v-492z" />
<glyph unicode="$" horiz-adv-x="800" d="M-43 272l14 88q16 53 172 226q4 4 11 4q6 0 10 -4q-39 -39 -47 -90l-2 -29q-4 -47 35.5 -113.5t85.5 -97.5q82 -55 161 -68v334q-279 176 -352 240q-27 23 -47.5 69t-20.5 76q0 33 21 74q45 88 114.5 190.5t110.5 135.5q88 72 174 92v160l92 26l-12 -178l166 -33l160 -61 q-68 -74 -94 -125l-41 -121q-10 -51 -41 -115.5t-58 -89.5q-6 -4 -10 4q35 35 62 105l18 90l-2 14q-25 49 -168 103l-10 -365l205 -125q47 -37 87 -95t40 -91q0 -53 -43 -117q-57 -84 -153.5 -187.5t-154.5 -146.5l-6 -176l-37 -16v170q-53 -29 -125 -29q-59 0 -143 43 t-128 96.5t-44 132.5zM121 1102q0 -53 86 -125q55 -47 190 -129v354l-100 12q-41 0 -90 -20t-67.5 -43t-18.5 -49zM440 182q80 -4 132.5 36t52.5 89l-13 51q-25 39 -161 129z" />
<glyph unicode="%" horiz-adv-x="909" d="M51 1049q4 135 62 235q27 47 88 87t108 40q37 0 83 -37t66.5 -79t35 -122.5t10.5 -136.5q-8 -135 -62 -229q-23 -41 -74 -81t-89 -46l-29 -4q-35 0 -82 37t-70 82q-51 104 -47 254zM102 -61l56 10l696 1544l-74 14l-559 -1335zM195 1149q0 -53 10 -137q16 -137 47 -215 q33 -84 61 -72q18 8 33.5 74.5t11.5 132.5l-8 143q-6 111 -45 217q-12 33 -32.5 54.5t-30.5 15.5q-18 -8 -32.5 -73.5t-14.5 -139.5zM436 381q5 131 64 235q27 47 87 87t105 40q37 0 84 -35.5t67.5 -78.5t35 -125t10.5 -137q-8 -139 -60 -230q-23 -39 -75 -79t-90 -48 l-29 -2q-35 -2 -82 36t-68 81q-53 111 -49 256zM580 481l8 -137q6 -111 47 -215q12 -31 32.5 -53.5t30.5 -18.5q18 8 35 75t12 134l-8 142q-6 104 -47 217q-31 84 -63 71q-18 -10 -35 -77.5t-12 -137.5z" />
<glyph unicode="&#x26;" horiz-adv-x="942" d="M-37 276q0 -45 26.5 -107.5t58.5 -93t95.5 -56t110.5 -25.5q57 0 144 41t134 90l21 -31q49 -74 74 -84l141 -16l150 186q-45 -4 -107.5 29t-93.5 76l-19 26q63 72 115.5 183.5t52.5 175.5q0 92 -51 151q-18 20 -59 39t-70 19q-49 0 -132 -46.5t-134 -101.5l-146 221 q-32 49 -32 76q0 16 15 30.5t34 14.5l28 -8q61 -51 119 -139q27 -41 11 -97l4 -4q33 53 112 121l103 72q-88 82 -219 203l-238 -136q-45 -27 -82 -86t-37 -104q0 -82 45 -152l53 -81q-86 -70 -156.5 -191t-70.5 -195zM154 453q0 102 57 180l78 -121q-31 -100 -31 -170 q0 -39 26.5 -72.5t59.5 -33.5l43 6q-20 18 -37.5 82.5t-19.5 121.5l178 -284q-47 -35 -102 -35q-37 0 -91.5 31.5t-83 68.5t-53 108t-24.5 118zM440 700q49 37 97 37q27 0 66.5 -23.5t60.5 -51.5q51 -74 51 -170q0 -80 -43 -140z" />
<glyph unicode="(" horiz-adv-x="299" d="M-20 694q0 -115 24.5 -342t52.5 -385q6 -39 91 -95t174 -73q-35 33 -68 87.5t-37 86.5q-39 338 -39 717t39 733q4 33 37 87.5t68 86.5q-88 -20 -172 -76.5t-93 -97.5q-78 -422 -77 -729z" />
<glyph unicode=")" horiz-adv-x="483" d="M82 -201q35 31 66.5 86.5t35.5 87.5q43 344 43 717q0 342 -43 733q-4 35 -35.5 88.5t-66.5 85.5q88 -20 172 -76.5t92 -97.5q78 -422 78 -729q0 -309 -78 -727q-6 -39 -91 -95t-173 -73z" />
<glyph unicode="*" horiz-adv-x="602" d="M-18 1120h172l-78 -78l33 -129l59 72l63 64v-111l113 -70l-8 93v83l78 -77l131 32l-76 58l-63 63h120l62 117l-88 -12h-92l84 84l-43 125l-52 -72l-61 -59v112l-117 64l12 -88v-95l-84 84l-124 -41l69 -55l62 -59h-111z" />
<glyph unicode="+" horiz-adv-x="516" d="M-25 524l105 13h98v-99l-12 -104l139 78v125h131l76 143l-92 -18h-115v116q0 45 19 90l-146 -73v-133h-123z" />
<glyph unicode="," horiz-adv-x="223" d="M0 100q0 27 41 133q43 0 80 -22q27 -16 48 -46t21 -50l-6 -37q-10 -35 -56 -111t-71 -71q33 65 17 106q-37 16 -55.5 43t-18.5 55z" />
<glyph unicode="." horiz-adv-x="233" d="M-2 100l41 133q43 0 80 -22q27 -16 48 -46t21 -50q0 -27 -16 -64l-27 -61q-35 2 -75.5 19.5t-56 39t-15.5 51.5z" />
<glyph unicode="/" horiz-adv-x="559" d="M-39 -80l37 4l604 1600l-96 4z" />
<glyph unicode="0" horiz-adv-x="913" d="M6 709q2 98 38 236t75 206q45 78 145.5 154.5t175.5 91.5l54 4q68 6 159.5 -66.5t132.5 -158.5q37 -78 62.5 -231.5t21.5 -260.5q-4 -96 -40.5 -233.5t-75.5 -204.5q-45 -80 -143.5 -157t-170.5 -85l-55 -6q-68 0 -157 69.5t-130 153.5q-39 78 -67.5 230.5t-24.5 257.5z M281 901q0 -113 16 -262q27 -238 82 -391q23 -59 57.5 -108.5t55.5 -49.5q23 0 50 56.5t38 123.5q18 133 14 222l-14 268q-10 188 -82 393q-20 59 -56 109.5t-57 50.5q-25 0 -51.5 -57.5t-36.5 -127.5q-16 -119 -16 -227z" />
<glyph unicode="1" horiz-adv-x="489" d="M139 1260q27 -23 27 -78v-1125q0 -55 24 -94l259 117q-35 51 -35 252v1071z" />
<glyph unicode="2" horiz-adv-x="931" d="M-16 31q94 106 208.5 258.5t157.5 228.5q49 88 89 212t40 185q0 49 -23.5 113t-50 88.5t-76.5 44t-87 19.5q-84 0 -148 -43q-49 -33 -49 -107q0 -31 14 -74q-14 -2 -25 32t-11 77q0 51 34.5 124t76.5 109.5t119 67.5t128 31q76 0 156 -35q55 -25 101 -108t46 -158 q0 -66 -22 -140q-16 -57 -74 -165q-59 -115 -111 -189l-239 -340l387 4q57 0 131.5 44t105.5 96q10 -4 -22 -64l-152 -270q-27 -35 -83 -63.5t-95 -26.5l-41 2z" />
<glyph unicode="3" horiz-adv-x="833" d="M14 242q0 45 31 123.5t69 130t50 51.5q-16 -29 -17 -74q0 -119 80 -197q49 -47 136.5 -86.5t142.5 -39.5q39 0 79 22.5t50 50.5q18 37 18 84q0 80 -104.5 194.5t-229.5 174.5q-90 43 -118 43q98 111 254 426l-217 4q-98 2 -144 -41q-33 -31 -33 -109l9 -59q-31 -8 -31 86 l4 41l121 319h516l-301 -481q147 -43 269 -165t122 -226q0 -72 -59.5 -196.5t-128.5 -204.5q-43 -49 -131.5 -89t-149.5 -40q-45 0 -106.5 21.5t-93 49t-59.5 86t-28 101.5z" />
<glyph unicode="4" horiz-adv-x="856" d="M-39 416q63 66 280.5 384t415.5 636v-852h78q45 0 100.5 30.5t75.5 65.5l7 -12l-29 -64q-49 -109 -102.5 -162t-129.5 -57v-291q0 -23 -16 -44t-35 -25l-211 -43q33 57 33 137v274zM172 586h252v348z" />
<glyph unicode="5" horiz-adv-x="833" d="M14 244q0 -43 29 -101.5t61.5 -85t96 -48t108.5 -21.5q63 0 150.5 39t130.5 86q68 74 124 197.5t56 197.5q0 59 -41 141t-90 123q-57 45 -196.5 94t-252.5 64l33 215h297q55 0 94 55l107 225q-52 -39 -111 -39h-424l-53 -479l-49 -178q88 8 229 -47q66 -25 149 -85 t118 -105q29 -37 52 -101.5t23 -101.5q0 -47 -17 -74t-59 -46t-75 -19q-45 0 -120 30.5t-120 68.5t-83 103.5t-38 106.5q0 43 27 88q-31 -25 -53 -53q-39 -49 -71 -127t-32 -123z" />
<glyph unicode="6" horiz-adv-x="833" d="M2 504q0 90 35 234.5t76 226.5q47 96 164.5 224t209.5 187q57 37 84 37q18 0 27 -16q-72 -29 -162 -103.5t-125 -138.5q-70 -125 -102 -364q45 49 131 89t145 40t138 -37t114 -82q27 -33 47.5 -102.5t20.5 -120.5q0 -145 -70 -297q-55 -121 -151 -197 q-37 -29 -101.5 -55.5t-105.5 -28.5q-43 -2 -106.5 15.5t-94.5 39.5q-86 63 -131 183q-43 113 -43 266zM209 690q-6 -121 67 -305q68 -172 135.5 -223t112.5 -51q33 0 61.5 57t30.5 125q2 61 -26.5 165.5t-64.5 172t-98 122t-101 52.5q-55 -2 -115 -72z" />
<glyph unicode="7" horiz-adv-x="727" d="M8 1030q0 25 6 39l37 90l68 227l661 3q-180 -553 -254 -756q-61 -166 -146 -348.5t-126 -237.5q-31 -41 -77 -73.5t-71 -32.5l-16 6q80 51 137 127q72 96 142 315q77 248 196 754l-354 8q-104 2 -145 -37q-31 -29 -31 -110l8 -60q-14 -2 -24.5 24.5t-10.5 61.5z" />
<glyph unicode="8" horiz-adv-x="845" d="M6 365q0 76 62.5 190.5t136.5 175.5q-61 47 -111.5 138.5t-50.5 150.5q0 63 61.5 159.5t135.5 149.5q43 31 116.5 55.5t120.5 24.5q94 0 168 -43t100 -113q23 -59 23 -120q0 -72 -57.5 -179.5t-126.5 -167.5q96 -51 175 -158.5t79 -185.5t-73 -193.5t-161 -174.5 q-45 -31 -119.5 -55.5t-122.5 -24.5q-74 0 -167 50t-129 110q-59 94 -60 211zM193 557q0 -55 35.5 -147.5t78.5 -147.5t115 -101t115 -46t82.5 29.5t39.5 111.5q0 39 -21.5 96.5t-47.5 85.5q-31 37 -164 129l-186 131q-47 -55 -47 -141zM213 1171q0 -82 105.5 -197.5 t232.5 -170.5q31 31 31 102q0 43 -20.5 117t-45.5 115q-35 59 -95.5 106t-113.5 47q-30 0 -55 -18q-39 -29 -39 -101z" />
<glyph unicode="9" horiz-adv-x="860" d="M18 860q0 141 60 270q51 113 160 193q39 29 106.5 54.5t110.5 27.5t105.5 -15.5t95 -42t73.5 -81t57 -99.5q45 -121 45 -276q0 -90 -34.5 -231.5t-75.5 -219.5q-49 -94 -173 -224t-222 -193q-45 -29 -80 -29q-25 0 -33 16q72 27 163 106t130 146q29 51 65.5 167t51.5 202 q-45 -47 -129 -86t-144 -39q-61 0 -143 38t-117 83q-27 35 -49.5 107.5t-22.5 125.5zM217 1112q2 -61 29.5 -165.5t61.5 -168t93.5 -117t96.5 -51.5q63 4 125 78q4 150 -64 328q-59 156 -135 231q-53 53 -105 53q-41 0 -72.5 -59t-29.5 -129z" />
<glyph unicode=":" horiz-adv-x="256" d="M14 104q0 16 39 134q47 0 80 -21q72 -45 72 -98q0 -25 -17 -64l-26 -63q-33 2 -75 20.5t-57.5 39.5t-15.5 52zM14 377q0 18 39 135q43 0 80 -23q72 -45 72 -98q-1 -22 -17 -61l-26 -64q-35 2 -76 19.5t-56.5 39t-15.5 52.5z" />
<glyph unicode=";" horiz-adv-x="256" d="M14 369q0 18 39 135q43 0 80 -25q70 -47 70 -98l-15 -64l-26 -61q-33 2 -75 20.5t-57.5 40t-15.5 52.5zM16 100q0 16 39 133l80 -22q27 -14 48.5 -45t21.5 -51l-6 -37q-12 -37 -56 -109q-49 -78 -69 -73q31 63 14 106q-35 16 -53.5 43t-18.5 55z" />
<glyph unicode="&#x3c;" horiz-adv-x="485" d="M-4 612l469 -307v98l-387 248l387 250v96l-469 -303v-82z" />
<glyph unicode="=" horiz-adv-x="569" d="M-6 420l102 14h357l75 139l-92 -16h-364zM-6 627l102 14h357l75 143l-92 -18h-364z" />
<glyph unicode="&#x3e;" horiz-adv-x="485" d="M2 305v98l385 248l-385 250v96l469 -303v-82z" />
<glyph unicode="?" horiz-adv-x="806" d="M98 1055q0 53 36 127.5t79 113.5t123 71t131 32q80 0 160 -39q59 -29 108 -111t49 -151q0 -55 -30.5 -139.5t-69.5 -133.5t-128 -105t-155 -71q35 -12 64 -35.5t29 -40.5v-133q0 -27 -24 -64.5t-52 -53.5l-121 -58l6 129v166q-12 78 -24 82q57 12 126.5 48t97 66.5t48 85 t20.5 91.5q0 39 -20.5 95t-44 85t-75.5 52.5t-89 23.5q-86 0 -168 -60q-51 -37 -51 -110q0 -37 12 -74q-14 -2 -25.5 33t-11.5 78zM285 -29l2 135q2 78 51 103l145 70v-127q0 -33 -17 -70t-38 -47z" />
<glyph unicode="@" horiz-adv-x="1040" d="M-18 440q0 -70 34.5 -163t76.5 -136t128 -78.5t146 -33.5l49 2q84 4 202 69l-20 21q-92 -49 -176 -51q-53 0 -127 29.5t-109 66.5q-41 43 -75.5 139t-30.5 166l4 68q6 109 72.5 251t136.5 205q55 49 148.5 90t152.5 41q57 0 131 -42t106.5 -89t57 -133t24.5 -147l-8 -90 q-35 -166 -70.5 -228.5t-84.5 -62.5q-27 0 -44.5 15.5t-13.5 37.5l86 406q6 27 56 71q-145 74 -211 154l-162 -113q-90 -45 -209 -49q20 -20 0 -115l-78 -364l-8 -58q0 -55 41 -83l45 -31q37 -20 72 -21q29 0 79 30t80 65l80 -70q35 -31 74 -31q31 0 98.5 55.5t118.5 122 t96 156.5q49 98 54 147l6 99q4 72 -34 167t-84 137t-137 74.5t-155 28.5q-94 -4 -232.5 -80.5t-207 -162.5t-123.5 -235.5t-55 -246.5zM371 422l90 424l12 20l16 2q70 -70 103 -84l-82 -385q-14 -70 -57 -86l-62 43q-29 29 -20 66z" />
<glyph unicode="A" horiz-adv-x="1112" d="M-63 1112q0 33 94 98l172 121q65 37 145 37h8q229 -4 367 -51q76 -27 137.5 -95.5t61.5 -125.5v-875l84 -41q61 -30 92 -30h2l-174 -160l-31 -8q-27 0 -98 36q-156 80 -195 88q70 86 70 154v262l-264 2v-213q0 -72 -62.5 -204t-138.5 -213l-115 -123l-10 4 q29 27 52.5 100.5t23.5 132.5l2 1047l207 116l-334 -10q-45 -12 -94 -55zM408 631h264v391q0 37 -72 80q-82 49 -192 65v-536z" />
<glyph unicode="B" horiz-adv-x="1038" d="M-6 1124q0 25 94 97q170 131 277 155l174 15q13 1 27 1q68 0 157 -24q102 -24 151 -57q43 -29 79 -88.5t36 -100.5q0 -37 -27.5 -95t-61.5 -94t-117 -84t-146 -71h7q139 0 257 -78q121 -80 121 -178q0 -66 -46 -172t-102 -168q-88 -98 -221 -155q-98 -43 -172 -43 q-100 0 -183 43t-83 94v942l209 119l-334 -11q-51 -12 -94 -55zM463 266q0 -37 90 -66.5t156 -29.5l36 6q33 45 33 154q0 139 -55 241q-25 47 -83 87t-101 40l-76 -12v-420zM463 786q43 2 98 21.5t82 43t49.5 69t22.5 73.5q-1 70 -58 117q-70 55 -194 68v-392z" />
<glyph unicode="C" horiz-adv-x="784" d="M-33 1190q92 18 283.5 92t333.5 145q68 -150 186 -329q-76 -31 -227 -131v-8q-1 -49 -21 -117q-22 -74 -49 -111l-12 2q18 23 32.5 90.5t14.5 124.5q-1 74 -19 105l-116 192q-16 20 -37 21q-25 0 -45.5 -44t-20.5 -98v-768q0 -55 77 -105t167 -54h12q71 0 148 44 q84 48 106 109l17 -4l-95 -168q-78 -137 -153 -198l-90 -11q-131 8 -266.5 57.5t-167.5 100.5q-20 33 -21 127v780q0 111 -37 156z" />
<glyph unicode="D" horiz-adv-x="1075" d="M16 1124q0 33 97 99l172 118q72 39 151 43l105 7q13 1 25 1q88 0 198 -36q125 -41 172 -88q40 -40 68 -194q27 -144 26 -284v-20q-4 -240 -37 -352q-18 -66 -74.5 -158t-107.5 -139t-146.5 -90t-160.5 -47h-10q-45 0 -120 30q-83 34 -134 76v975l206 119l-333 -13 q-51 -12 -93 -53zM483 270q0 -41 82 -77.5t142 -36.5l28 6q15 12 29 188q10 136 11 281q0 43 -1 86l-4 231q-2 70 -91 141.5t-196 88.5v-908z" />
<glyph unicode="E" horiz-adv-x="897" d="M-61 1118l2 -8q49 49 108 61q39 8 352 9l-190 -105v-829q0 -92 18 -121q33 -51 166 -99.5t260 -54.5l90 11q152 156 209 231q10 9 10 14q0 2 -1 4q-45 -35 -113 -36l-113 -5q-100 12 -182 61.5t-82 96.5v297h154q29 0 28 -53l-12 -92l6 4q43 98 86 151l78 97h-340v428h14 q70 0 152 -18q90 -20 119 -42q12 -12 12 -53q0 -113 -43 -172l10 -2q25 33 45 103q18 63 17 110v14q1 32 31 108q32 81 71 144l-543 2q-84 0 -153 -39l-172 -121q-94 -66 -94 -96z" />
<glyph unicode="F" horiz-adv-x="843" d="M-59 1118l4 -8q49 49 108 61q39 8 350 9l-188 -105v-999q0 -86 -24.5 -179.5t-53.5 -121.5l8 -4q25 0 125 127q78 98 142.5 226t64.5 185v336h154q29 0 28 -53l-14 -92l8 4q37 88 86 151l76 97h-338v428h14q70 0 151 -18q89 -20 120 -42q12 -12 12 -53q0 -115 -45 -172 l12 -2q25 33 43 101q17 62 17 112v13q0 80 102 253l-543 2q-84 0 -153 -39l-172 -121q-94 -66 -94 -96z" />
<glyph unicode="G" horiz-adv-x="860" d="M-2 1163q90 18 278.5 91t323.5 141q61 -141 182 -324q-76 -31 -223 -127l-35 -45l-8 -4q8 28 8 56q0 39 -16 77l-115 189q-12 20 -35 20q-25 0 -44 -43t-19 -96v-750q0 -82 28.5 -114.5t114.5 -40.5l113 4v448l-47 -2q-78 -4 -150 -55v8l76 78l49 80h340 q-16 -29 -16 -105l-2 -338q0 -70 -62.5 -199.5t-138.5 -217.5q-106 -123 -117 -123l-8 4q29 27 52.5 99.5t23.5 133.5v135l-162 -172h-35q-137 12 -195.5 43t-107.5 111q-18 29 -18 123v760q0 109 -35 155z" />
<glyph unicode="H" horiz-adv-x="1191" d="M16 1118q0 25 97 94l172 123q61 44 131 44q9 0 18 -1l154 -10q33 -2 33 -27v-571h241v410q0 76 -16 100l268 113q14 -18 14 -99l5 -1081q0 -100 14 -129l-277 -117l-8 131v564h-241v-330q0 -76 -64 -211q-68 -141 -149 -230l-115 -122l-10 4q29 27 53 100.5t24 132.5 v1153l-231 10q-63 -12 -109 -61z" />
<glyph unicode="I" horiz-adv-x="694" d="M4 1118q0 27 94 94l172 123q76 39 147 39h7l149 -6q35 -2 35 -27v-1030q0 -197 35 -254l-272 -114q-25 33 -25 94v608h-59l-160 -20l84 127h135v405l-231 12q-59 -12 -109 -61z" />
<glyph unicode="J" horiz-adv-x="858" d="M33 150q0 27 76 122l118 150v-6q0 -54 36 -148q38 -98 81 -156.5t97.5 -105.5t76.5 -47q18 0 19 21v665h-52l-159 -20l84 127h127v407l-179 17l-143 4q-68 -17 -111 -60l-2 6q0 29 95 97l172 123q57 41 129 41q11 0 22 -1l246 -16q35 -2 35 -29v-1038q0 -45 -56 -139 q-59 -100 -127 -168l-219 -219q-12 -12 -32 -13q-33 0 -95.5 36t-107.5 81t-87 130t-44 139z" />
<glyph unicode="K" horiz-adv-x="1071" d="M-66 1126q0 27 95 95l172 122q76 41 146 41h7l150 -6q35 -2 35 -28l-2 -742l286 639q23 72 23 127h141l-78 -129l-176 -336l309 -657q72 -152 109 -180q-231 -94 -262 -113l-45 72l-45 96l-211 461l-49 -113l-2 -156q0 -74 11 -153.5t25 -99.5l-274 -115q-23 27 -23 166 v1048l-231 13q-61 -12 -108 -60z" />
<glyph unicode="L" horiz-adv-x="903" d="M-57 1122q0 27 94 95l172 122q61 43 138 43h13l154 -6q33 -2 33 -30v-1065q0 -20 26.5 -41t57.5 -23q32 -3 69 -3t80 3q45 2 90 17.5t54 29.5l8 -2l-178 -274h-342q-47 0 -87 23.5t-40 51.5v599h-60l-157 -19l84 129h133v391l-230 11q-61 -12 -110 -62z" />
<glyph unicode="M" horiz-adv-x="1683" d="M-78 1118l4 -10q49 49 109 61l229 -10v-1153q0 -61 -23.5 -134t-52.5 -99l9 -4q12 0 116 122q82 94 148.5 231.5t66.5 209.5v702q0 37 16.5 76t33.5 35q82 -16 143 -60q51 -37 51 -69v-1047l266 115v938q0 47 15.5 86t33.5 37q82 -20 138.5 -57t56.5 -72v-762 q0 -84 -47 -148l184 -98q51 -28 88 -28h2q20 0 45 14l172 160q-7 -2 -15 -2q-34 0 -77 28l-86 56v880q0 41 -35.5 98.5t-78.5 83.5q-104 63 -258 80q-90 -145 -146 -207q-20 66 -134 130.5t-230 76.5l-138 -200v163q0 29 -34 31l-152 6h-6q-69 0 -148 -43l-172 -123 q-94 -68 -94 -94z" />
<glyph unicode="N" horiz-adv-x="1239" d="M-68 1118q0 20 95 94q125 96 174 125q77 43 145 43h6l154 -6q33 -2 33 -31v-165l137 202q166 -21 260 -82q41 -27 76 -84t35 -98v-883l88 -53q44 -28 76 -28q8 0 16 2l-172 -160l-45 -14q-39 0 -92 28l-185 98q49 61 49 148v762q0 35 -47 69q-53 39 -139 60 q-18 4 -37.5 -31t-19.5 -98v-684q0 -72 -68 -209t-147 -232q-104 -123 -117 -122l-8 4q29 27 53 99.5t24 131.5l-2 1155l-229 10q-61 -12 -111 -61z" />
<glyph unicode="O" horiz-adv-x="991" d="M16 1128q0 20 95 97q113 90 177 123.5t148 35.5h21q99 0 215 -32q130 -36 178 -84q38 -40 68 -194q28 -145 28 -285v-19q-4 -240 -37 -354q-18 -63 -76.5 -156.5t-110.5 -142.5t-140 -94.5t-142 -47.5h-9q-54 1 -128 45q-80 48 -117 107q-14 23 -26.5 174.5t-12.5 308.5 q0 135 15.5 265.5t32.5 148.5q61 66 243 154q-102 12 -181 12q-85 0 -144 -14q-51 -12 -93 -54zM416 721q0 -408 37 -471q31 -53 94 -87t90 -34q8 0 10 4q16 12 21 266q2 96 2 197q0 169 -6 352q-4 99 -33 142q-14 23 -59.5 47t-84.5 32q-27 -16 -49 -156.5t-22 -291.5z" />
<glyph unicode="P" horiz-adv-x="997" d="M-39 1106q0 27 100 96l181 125q90 49 161 53l91 4h16q84 0 194 -38q120 -42 177 -95q49 -45 90 -140t41 -163q0 -70 -43 -172t-95 -158q-55 -61 -187 -125.5t-232 -80.5v-109q0 -72 -65.5 -204t-145.5 -214l-121 -123l-8 5q31 29 56.5 102.5t25.5 132.5v1047l217 116 l-353 -12q-55 -12 -98 -55zM455 514q43 2 103 36t89 74t51.5 111.5t22.5 120.5q0 43 -20.5 104.5t-45 93t-88 65.5t-112.5 40v-645z" />
<glyph unicode="Q" horiz-adv-x="983" d="M10 1128q0 23 94 97q119 92 175 118q66 39 151 41h21q98 0 215 -32q129 -37 178 -84q39 -39 68 -194q28 -146 28 -285v-19q-4 -242 -37 -354q-18 -63 -75.5 -155.5t-108.5 -139.5q-104 -98 -209 -127l235 -39q44 -7 87.5 -7t85.5 7l-97 -176q-49 -70 -102 -70l-29 4 l-307 84l-123 17q98 139 131 163q-47 4 -112.5 51.5t-98.5 98.5q-14 23 -26.5 174.5t-12.5 308.5q0 135 14.5 265.5t30.5 148.5q55 63 246 154q-103 12 -183 12q-85 0 -143 -14q-51 -12 -92 -54zM408 719q0 -152 12 -299.5t26 -169.5q33 -55 95.5 -88t89.5 -33q8 0 10 4 q16 12 21 266q2 90 2 185q0 174 -7 364q-3 99 -32 142q-39 57 -144 77q-29 -16 -51 -156.5t-22 -291.5z" />
<glyph unicode="R" horiz-adv-x="1030" d="M-70 1106q0 29 99 96l182 125q78 43 162 51q27 2 57 2q109 0 226.5 -26.5t173 -66.5t103.5 -129t48 -154q0 -43 -22.5 -110t-50 -106.5t-94 -96t-118.5 -83.5l269 -471q76 -133 135 -180q-225 -96 -252 -113q-51 59 -111 172l-272 512l-41 -6v-223q0 -197 39 -244 l-277 -114q-20 33 -20 106v1002l217 116l-354 -12q-47 -10 -97 -55zM424 569q43 2 101.5 33t87 65.5t52 101.5t23.5 112q0 41 -19.5 96t-44 84t-88 60.5t-112.5 37.5v-590z" />
<glyph unicode="S" horiz-adv-x="806" d="M-37 250l14 92q16 51 170 223q12 12 21 0q-39 -39 -47 -90q-2 -14 -2 -28q0 -43 18 -89q33 -78 101 -122q41 -27 108.5 -49.5t108.5 -22.5q74 0 125 37t51 88l-15 49q-31 49 -241 182q-262 166 -326 223q-25 23 -45 67t-20 75q0 35 20 76q43 90 112.5 191t113.5 137 t122 66.5t125 30.5q84 0 170 -32l160 -62l-92 -125l-41 -120q-10 -51 -41 -116t-58 -91q-6 -4 -10 4q43 43 66 123q14 53 14 75q0 9 -2 13q-16 31 -98 71.5t-156 57.5l-88 8q-39 0 -89 -20.5t-68.5 -44t-18.5 -46.5q0 -53 88 -125q29 -25 246 -159l209 -131q47 -37 87 -95.5 t40 -91.5q0 -53 -41 -112q-125 -178 -250 -287q-45 -39 -116 -69.5t-112 -30.5q-57 0 -142 43t-128 94t-43 133z" />
<glyph unicode="T" horiz-adv-x="923" d="M-63 1112q0 33 94 98l176 121q59 41 155 47q24 2 50 2q135 0 305 -45l160 -24q66 0 112 39l-2 -13q-63 -82 -157.5 -151.5t-145.5 -69.5q-16 0 -92 21l-98 26l2 -815q0 -47 71.5 -95t157.5 -58q24 -3 49 -3q81 0 158 31l10 -8l-96 -111l-115 -120l-88 -11 q-115 8 -236.5 55.5t-152.5 96.5q-20 33 -21 121l3 397l-66 2l-158 -20l84 127h140v305l208 114l-225 7l-186 -17q-51 -12 -94 -55z" />
<glyph unicode="U" horiz-adv-x="1212" d="M23 1118q0 20 94 94q121 94 172 123q71 39 139 39h12l146 -6q31 -2 30 -27v-1030q0 -33 57.5 -70.5t160.5 -60.5q18 -4 32.5 17.5t14.5 52.5v930q0 74 -19 100l268 113q18 -18 19 -99v-1081q0 -100 14 -129l-272 -117q-10 37 -10 131v31l-150 -145q-137 18 -251.5 100 t-114.5 160v401h-60l-160 -20l84 127h136v405l-232 12q-63 -12 -108 -61z" />
<glyph unicode="V" horiz-adv-x="1107" d="M-76 1118q0 27 94 94l172 123q61 44 134 44q9 0 18 -1l143 -10q33 -2 33 -27v-1030q0 -31 57 -67q68 -43 162 -64q18 -4 46 27t42 72q34 91 34 201q0 21 -1 44q-4 55 -39 157.5t-74.5 170.5t-70.5 154t-31 122l10 86q12 49 60.5 117t92.5 99.5t116.5 57t115.5 25.5 q37 0 81 -17t59 -40l-39 -61l-41 47q-51 35 -103 35q-45 0 -94 -31q-29 -18 -52.5 -59t-23.5 -74q0 -82 74 -207l117 -197q49 -82 49 -188l-12 -105q-37 -131 -173.5 -331.5t-244.5 -300.5q-139 18 -254 99t-115 161v401h-59l-160 -20l84 127h135v407l-231 10 q-63 -12 -109 -61z" />
<glyph unicode="W" horiz-adv-x="1558" d="M-104 1118l2 -10q49 49 108 61l232 -10v-407h-136l-84 -127l160 20h60v-401q0 -82 106.5 -164t233.5 -98l170 153q27 -51 130 -98t203 -55q104 92 244 299q150 223 178 335l13 105q0 86 -48 188l-118 199q-72 121 -72 205q0 33 22.5 75t49.5 58q47 31 94 31q49 0 106 -35 l39 -47l41 59q-18 23 -62 41t-79 18q-45 0 -118 -25.5t-117 -57t-91 -100t-59 -118t-12 -84.5q0 -96 104 -274q39 -68 75 -171t40 -159q1 -22 1 -44q0 -111 -34 -204q-14 -41 -44 -72.5t-50 -29.5q-106 14 -162 59q-45 37 -45 76v983q0 82 -16 99l-252 -111q14 -25 14 -100 v-428h-107l-84 -129l160 22h31v-397q0 -29 -13.5 -51.5t-29.5 -18.5q-88 18 -145 64q-43 35 -43 69v1030q0 27 -33 29l-144 8h-11q-65 0 -142 -43l-172 -123q-94 -68 -94 -94z" />
<glyph unicode="X" horiz-adv-x="1036" d="M-63 -176l135 178l362 565q-143 295 -215 410l-57 92l-51 66q-25 20 -72 22l-53 2q117 111 213 211l18 10q47 0 118 -74.5t136 -213.5l102 -218l289 461l-76 -8q-100 -11 -180 -79q-76 -65 -76 -133v-7q-16 3 -16 63q0 31 4 78q6 61 39 141t66 113q27 27 76 47 q45 19 74 19h5l258 -15l-430 -749q109 -225 203 -387l63 -109l58 -73q25 -20 69 -25h56q-150 -137 -215 -219l-19 -4q-45 0 -121 86q-86 96 -143 225l-80 178l-274 -454l96 -19l61 -8l60 -6q27 0 59.5 20.5t49 48t20.5 72.5q12 -4 12 -29l-22 -110q-18 -51 -64.5 -118 t-81.5 -95q-70 -53 -143 -53l-33 4z" />
<glyph unicode="Y" horiz-adv-x="1216" d="M33 1118q0 20 94 94q121 94 172 123q73 39 141 39h13l143 -6q33 -2 33 -27v-976q0 -33 60.5 -72t154.5 -62q18 -4 32.5 17.5t14.5 52.5v879q0 74 -19 100l269 113q14 -14 14 -99l4 -1018q0 -59 -48 -166.5t-105 -177.5q-113 -139 -235 -237t-175 -111l-88 -10 q-61 0 -150.5 42t-134.5 93t-45 135q0 43 17 95q20 61 151 200q25 27 35 17q-41 -45 -49 -95l-2 -26v-9q0 -44 37 -104q41 -67 90 -98q100 -63 205 -64q92 0 160.5 46.5t68.5 103.5v272l-150 -147q-137 18 -250.5 100t-113.5 160v350h-62l-159 -20l84 127h137v405l-234 12 q-59 -12 -108 -61z" />
<glyph unicode="Z" horiz-adv-x="819" d="M-57 6l354 639h-92l-162 -20l84 127h231l211 381h-383q-115 0 -147.5 -31t-32.5 -113q0 -35 12 -63q-14 -2 -24 24.5t-10 63.5l4 41l104 319h731l-364 -622h139l162 24l-86 -131h-279l-243 -414h491q57 0 131 44t105 98q3 -1 3 -6q0 -14 -26 -60l-154 -270 q-25 -35 -80 -63q-51 -27 -89 -27h-5l-41 2z" />
<glyph unicode="[" horiz-adv-x="278" d="M-20 -125l321 2v78h-170v1456h170v78h-321v-1614z" />
<glyph unicode="\" horiz-adv-x="581" d="M-39 1524l96 4l547 -1608l-39 4z" />
<glyph unicode="]" horiz-adv-x="454" d="M57 -45h170v1456h-170v78h322v-1614l-322 2v78z" />
<glyph unicode="^" horiz-adv-x="872" d="M-41 983h72l381 311l379 -311h73l-381 418h-141z" />
<glyph unicode="_" horiz-adv-x="1187" d="M-18 721q0 -61 36.5 -133t79.5 -96q33 -18 33 -48q0 -43 -68 -102q141 -45 297 -118.5t201 -119.5l2 -2l2 2q31 31 126 83.5t177 82.5l199 74q-72 55 -72 100q0 27 35 45q45 25 82 96.5t37 135.5q0 53 -24.5 153.5t-53.5 163.5h-86v78h-53q-121 0 -252 51q-57 23 -113 23 q-59 0 -118 -23q-137 -51 -252 -51h-52v-78h-86q-29 -66 -53 -165t-24 -152zM29 723q0 119 61 266h103v78h36q88 0 238 55q55 20 100 21l97 -19q147 -57 274 -57v-78h102q61 -152 62 -268q0 -53 -30 -111.5t-64 -77.5q-63 -33 -64 -86q0 -45 41 -81q-295 -109 -420 -201 q-104 80 -295 153l-120 48q37 41 36 79q0 55 -65 88q-35 18 -63.5 78t-28.5 113zM43 756q-4 -59 21.5 -126t62.5 -85q27 -14 50.5 -45t23.5 -54q0 -39 -29 -75q258 -96 391 -189q127 90 393 189q-27 35 -26 75q0 23 21.5 53.5t47.5 45.5q39 20 65 85.5t19 127.5 q-10 106 -53 217h-106v80q-136 4 -269 55l-90 18l-94 -18q-139 -57 -264 -57v-80h-109q-49 -127 -55 -217zM283 561l26 29v293l-26 28h108q-27 -14 -26 -26v-131h71v204q0 18 -39 46h185q-47 -23 -47 -46v-204h77v129q0 16 -24 28h276l27 -63l-62 18h-159v-112h57 q29 0 49 24v-84q-16 16 -49 17h-57v-123q0 -12 26 -27h-110l26 29v121h-77v-211h196q53 0 109 39l-76 -107h-371q43 23 43 45v234h-71v-121q0 -14 26 -29h-108zM532 317v5q6 4 13 4q6 0 8 -4q-4 18 2 28l4 12h4l6 -12l4 -28q4 4 11 4q6 0 10 -4v-5q-25 -55 -31 -96h-2l-4 35 z" />
<glyph unicode="a" horiz-adv-x="745" d="M-35 750q141 8 228 59l153 127q99 -98 275 -178q-45 -41 -46 -80v-457l68 -43l80 -22l-172 -176l-213 129l-150 -129l-125 73q-27 16 -48 65.5t-21 92.5v414q0 104 -29 125zM203 262q0 -55 55 -86l64 -35q43 16 43 97v432l-136 98l-6 2q-20 0 -20 -29v-479z" />
<glyph unicode="b" horiz-adv-x="684" d="M-10 139q37 29 37 121v868q0 57 37.5 124t82.5 94l119 69q-30 -68 -30 -156v-6v-419l112 94q188 -127 299 -180q-35 -35 -35 -72v-426l29 -37q-55 -25 -147.5 -93.5t-147.5 -125.5q-14 -14 -43 -14q-37 0 -72 20zM236 252q0 -37 59 -72q31 -16 80 -43q25 25 24 72v467 l-133 90l-8 2q-23 0 -22 -27v-489z" />
<glyph unicode="c" horiz-adv-x="591" d="M-23 766q193 59 443 170l125 -318q-70 -31 -187 -104l-28 -39q-2 -4 -8 -4q12 35 12 66t-12 57l-103 215l-4 -510q0 -39 48 -79t108 -46q34 -4 65 -4q72 0 123 23l10 -7l-174 -192h-88q-80 0 -170 40t-117 83q-14 23 -14 100v424q0 84 -29 125z" />
<glyph unicode="d" horiz-adv-x="698" d="M-20 492q-1 8 -1 17q0 49 19 111q22 74 51 111q59 74 223 158q-35 55 -62.5 139t-27.5 129q0 35 43 90.5t97 83.5l57 31q-15 -49 -15 -90q0 -44 17 -78l178 -363q39 -78 71 -186t32 -158q0 -45 -25 -109.5t-53 -96.5q-219 -242 -340 -308q-92 121 -175 283t-89 236z M180 670q0 -84 35 -201t139 -268q20 -31 54 -31q20 0 36 16q39 39 39 125q0 76 -57 240t-125 285l-39 8q-31 -16 -56.5 -70.5t-25.5 -103.5z" />
<glyph unicode="e" horiz-adv-x="604" d="M-10 766q198 61 442 170l127 -318q-160 -70 -328 -182v-137q0 -41 47.5 -80t104.5 -45q34 -4 65 -4q72 0 123 23l11 -7l-174 -192h-89q-80 0 -170 40t-116 83q-14 23 -15 100v424q0 88 -28 125zM231 477l119 70l-51 127l-68 135v-332z" />
<glyph unicode="f" horiz-adv-x="636" d="M-43 625l31 59h96v338q0 98 -29 115q104 12 219 86q102 68 134 123l116 -101q70 -49 121 -49q27 0 39 16l-8 -20q-39 -49 -98.5 -90t-92.5 -41q-29 0 -84 33.5t-92 74.5q-10 -6 -10 -61v-424h131l-37 -59h-94v-668q0 -45 -22.5 -115.5t-49.5 -111.5q-68 -102 -176 -174 q31 92 31 245l2 824h-127z" />
<glyph unicode="g" horiz-adv-x="755" d="M8 -152q0 45 36 110t77 97l16 4q-31 -39 -31 -71q0 -23 35 -64t78 -70.5t116 -55t114 -25.5q68 0 94 47l6 24l-27 45q-35 39 -49 84q-21 63 -21 150q0 17 1 35l-121 -144q-10 -12 -53 13l-246 139q37 29 37 119v362l-13 78l-28 47q123 12 211 59q72 39 159 123 q188 -133 301 -180q-39 -39 -38 -74v-569q0 -14 12 -47l12 -55q0 -33 -42 -107t-93 -133t-132 -108.5t-128 -49.5q-35 0 -103.5 30t-115.5 65q-25 18 -44.5 56t-19.5 66zM283 311q0 -37 57 -73l84 -39q25 25 25 71v435l-146 90q-20 0 -20 -27v-457z" />
<glyph unicode="h" horiz-adv-x="780" d="M-43 115q59 63 59 125v843q0 74 -24 160q76 8 264 123q-25 -74 -25 -162v-456q78 51 162 151l150 -14q27 -10 49 -51t22 -80l-2 -461q0 -23 30 -56.5t64.5 -50t55.5 -12.5l-154 -190q-72 35 -135 88q-78 68 -78 110v447q-1 55 -33 81q-28 23 -93 24q-10 0 -21 -1 q-16 -4 -17 -18v-455q4 -20 69 -52q58 -28 82 -28h5l-176 -196z" />
<glyph unicode="i" horiz-adv-x="397" d="M-23 117q57 66 58 123v428q0 72 -25 157q78 8 266 127q-24 -71 -24 -157v-7v-528q4 -24 66 -54q55 -27 83 -26h7l-177 -196zM27 915l172 91q25 12 43 53t18 76v202l-166 -92q-23 -12 -40 -48q-15 -32 -15 -62v-7q2 -45 2 -82q0 -92 -14 -131z" />
<glyph unicode="j" horiz-adv-x="487" d="M18 -408q2 -2 7 -2q25 0 126 54q123 65 164 112q35 41 64 131t29 156v745q0 80 22 162q-184 -117 -264 -125q24 -83 24 -155v-6v-754q0 -57 -54 -156.5t-118 -161.5zM182 915q14 34 14 145q0 31 -1 68q0 31 15 66t34 47l176 96l-6 -73v-129q0 -37 -17.5 -77t-40.5 -52z " />
<glyph unicode="k" horiz-adv-x="735" d="M-41 117q59 63 59 125l-2 888q0 76 9 99q23 68 110 117l123 69q-27 -66 -27 -162v-462q72 59 164 161q70 -27 126.5 -87t56.5 -107q0 -29 -23 -78t-49 -78q-70 -74 -182 -117l88 13q35 0 80 -19.5t65 -42.5q47 -55 49 -139q0 -33 17.5 -65.5t38.5 -43.5l57 -12l-152 -192 q-76 16 -128 72.5t-52 127.5v193q0 31 -29.5 56.5t-64.5 25.5l-45 -10q-16 -8 -17 -39v-148q5 -26 61 -56q50 -27 75 -26h6l-176 -196zM231 743l2 -272q1 -1 4 -1q9 0 33 16q31 20 56.5 73t25.5 94q0 55 -23.5 93t-62.5 38l-24 -12z" />
<glyph unicode="l" horiz-adv-x="419" d="M-23 115q57 70 58 125v843q0 74 -25 160q76 8 264 123q-24 -74 -24 -162l2 -944q4 -24 66 -54q55 -27 83 -26h7l-177 -196z" />
<glyph unicode="m" horiz-adv-x="1249" d="M-43 772l182 143l49 -4q33 -20 72 -73.5t51 -96.5q74 49 158 152l152 -14q27 -12 49 -55.5t22 -84.5q78 53 158 154l151 -14q27 -12 48.5 -54.5t21.5 -79.5l-2 -460q0 -25 29.5 -57.5t65.5 -49t59 -12.5l-158 -193q-68 31 -131 88q-78 70 -78 113v449q0 51 -30 79 q-27 25 -98 25h-21l-17 -12v-430q0 -25 30 -57.5t67.5 -50t48.5 -17.5l-150 -187q-72 35 -135 88q-78 68 -78 113v449q1 53 -31 81q-28 24 -96 24q-10 0 -20 -1l-17 -12v-465q0 -37 150 -86l-172 -191q-135 84 -256 136q25 20 44 58t19 62v441q-33 78 -78 94z" />
<glyph unicode="n" horiz-adv-x="876" d="M-39 772l182 143l50 -4q35 -18 72.5 -71.5t49.5 -98.5q74 48 158 152l156 -16q27 -12 47 -53.5t20 -78.5l-2 -462q0 -25 30 -56.5t65.5 -48t56.5 -12.5l-156 -193q-72 35 -135 88q-76 66 -76 113v449q1 53 -29 81q-26 24 -98 24q-10 0 -22 -1l-17 -14v-463q0 -35 150 -88 l-172 -189q-131 84 -256 136q25 20 44 58t19 62l2 441q-33 78 -80 94z" />
<glyph unicode="o" horiz-adv-x="708" d="M-6 745q127 12 211 60q70 39 157 123q193 -133 297 -180q-37 -37 -36 -76v-430l28 -35q-158 -78 -297 -219q-16 -16 -41 -17q-29 0 -71 25l-244 137q37 25 37 119v369q0 100 -41 124zM248 248q0 -35 55 -74l82 -41q27 23 27 72v471q-97 59 -138 90l-8 2q-18 0 -18 -29 v-491z" />
<glyph unicode="p" horiz-adv-x="712" d="M2 745q127 12 211 60q70 39 158 123q180 -127 295 -180q-37 -41 -37 -74v-424l30 -37q-55 -27 -148 -95.5t-149 -123.5q-14 -14 -38 -14l-68 18v-199q0 -25 -17.5 -56.5t-37.5 -41.5l-178 -96l20 90l2 928q0 39 -13.5 76.5t-29.5 45.5zM256 252q0 -43 55 -72l82 -43 q27 23 27 72v467q-16 12 -67.5 46t-69.5 44l-9 2q-18 0 -18 -27v-489z" />
<glyph unicode="q" horiz-adv-x="688" d="M-16 754q123 8 211 57q70 39 157 123q193 -131 295 -180q-37 -37 -37 -74v-879q0 -51 21.5 -113.5t46.5 -86.5l-10 -4q-39 0 -144 77q-45 33 -81.5 122t-36.5 163v176l-119 -137q-12 -14 -56 10l-241 135q37 33 37 123v363q0 37 -13.5 75.5t-29.5 49.5zM238 293 q0 -35 55 -74l82 -39q25 25 24 72v432l-143 92q-18 0 -18 -28v-455z" />
<glyph unicode="r" horiz-adv-x="645" d="M-20 770l182 148l16 8q45 0 97.5 -72t56.5 -113l137 156q16 18 27 0l143 -203q4 -11 4 -22q0 -28 -25 -56l-149 -165l-35 -54l-4 6l27 64l6 31q0 39 -33 96l-84 113l-8 6q-8 -4 -8 -51v-406q0 -29 10 -33l94 -47l55 -18l-165 -183l-269 134q59 63 60 112v449 q-25 63 -53.5 81.5t-81.5 18.5z" />
<glyph unicode="s" horiz-adv-x="571" d="M-16 154l8 59q14 41 106 145h13q-25 -29 -31 -61v-6q0 -24 26 -61q30 -42 68 -66q80 -53 158 -53q47 0 79.5 20.5t32.5 46.5l-20 39l-160 109l-215 151q-53 45 -53 90l10 45q88 180 156 234q37 29 95 52.5t93 23.5l105 -19l106 -41l-65 -96l-33 -111l-23 -43 q-16 -31 -30 -26q36 48 36 92q0 12 -2 18q-10 25 -65 45l-109 39l-61 6q-90 0 -123 -45l-8 -20q0 -29 82 -80l315 -201q33 -20 60.5 -57t27.5 -57q0 -35 -33 -82q-78 -113 -172 -195q-78 -68 -110 -72l-66 -8q-37 0 -89 27t-80.5 60.5t-28.5 97.5z" />
<glyph unicode="t" horiz-adv-x="604" d="M-18 823q111 80 389 359v-299h213l-31 -60h-180v-592l125 -63l88 -4l-168 -170l-35 -10q-18 0 -98 36l-193 89q66 78 66 151v563h-176z" />
<glyph unicode="u" horiz-adv-x="862" d="M-33 774l154 129q4 4 14 4q8 0 15 -4q61 -23 102 -84q45 -68 45 -108v-414q0 -43 47 -76q41 -29 90 -29q7 0 15 1q16 4 16 43v389q0 37 -29 82l-67 63l-21 4l152 129q6 4 14 4t18 -4q57 -23 99 -84q45 -68 45 -108v-426q0 -27 32.5 -61t71.5 -50l49 -6l-159 -195 q-78 45 -141.5 107.5t-61.5 91.5l-133 -180h-18q-44 0 -96 8q-62 10 -82.5 24.5t-37 64.5t-16.5 95v445q0 41 -29.5 82t-68.5 59z" />
<glyph unicode="v" horiz-adv-x="770" d="M8 772q35 -4 75 -52t40 -99v-361q0 -94 -37 -123l240 -137l73 -20q27 0 41 14q57 57 149.5 125.5t147.5 93.5l-30 37v461q0 53 -59.5 124.5t-100.5 71.5l-19 -6l-149 -127q51 -12 90 -72q27 -41 27 -73v-420q0 -47 -25 -72l-82 43q-51 27 -51 70v461q0 59 -62.5 127.5 t-101.5 68.5l-16 -6z" />
<glyph unicode="w" horiz-adv-x="1112" d="M-20 774q33 -4 72.5 -52t39.5 -99v-365q0 -92 -35 -119l240 -139q35 -20 72 -20q27 0 43 14l106 94l154 -88l69 -20l43 14q57 57 149.5 125.5t147.5 93.5l-30 37v459q0 57 -58.5 127.5t-101.5 70.5l-19 -6l-149 -127q51 -12 88 -72q31 -49 31 -73v-420q0 -45 -27 -72 l-82 43q-51 27 -51 72v457q0 55 -61.5 126.5t-102.5 71.5l-18 -6l-150 -127q53 -12 88 -72q29 -49 29 -73v-420q0 -47 -25 -72l-82 43q-51 27 -51 72v461q0 57 -62.5 125.5t-103.5 68.5l-14 -4z" />
<glyph unicode="x" horiz-adv-x="700" d="M-20 709l83 190h18q77 -1 152 -31q84 -34 99 -82l51 -176l66 221q8 27 36.5 49.5t55.5 22.5h125l-62 -194h-125q-29 0 -39 -35l-37 -119l97 -301q10 -29 48 -53.5t73 -24.5l49 12l-80 -198q-11 -1 -23 -1q-71 1 -142 33q-83 38 -99 91l-54 176l-63 -228q-8 -27 -37 -49 t-55 -22l-123 2l59 196h123q29 0 39 33l41 127l-92 293q-10 31 -48 54.5t-75 23.5z" />
<glyph unicode="y" horiz-adv-x="815" d="M-25 748l35 -3l47 -16q45 -37 66 -104v-369l-10 -82l-52 -70l39 -8l256 -127l70 88l94 93v-56q0 -90 29 -162q4 -12 38 -63t34 -57l-7 -27q-25 -45 -92 -45q-43 0 -115.5 25.5t-115.5 55t-78 70.5t-35 62q0 35 31 74l-14 -4q-43 -35 -79 -98.5t-36 -108.5q0 -29 21.5 -68 t45.5 -57q47 -35 115 -64.5t100 -29.5q49 0 130 48t130.5 106.5t91.5 134t42 106.5l-15 57q-12 49 -12 51v584q0 57 37 90l-254 139q-82 -102 -166 -172l66 -20l108 -74v-424l-18 -57l-49 2l-117 61v482q-12 78 -74 139q-51 51 -88 51l-10 -4q-109 -100 -189 -149z" />
<glyph unicode="z" horiz-adv-x="702" d="M-33 29l449 -64q11 -2 22 -2q56 0 117 43q33 23 67.5 74t47.5 92l20 74l-10 16q-6 -44 -72 -76q-53 -25 -111 -26q-15 0 -30 2l-297 31l492 706h-607l-32 -250l6 -47q6 -41 22 -41q-12 37 -12 76t12 49q31 25 119 25h227l-325 -549z" />
<glyph unicode="{" horiz-adv-x="524" d="M-37 655q53 -4 113.5 -24.5t81 -41t37 -83t16.5 -115.5q0 -211 6 -270q4 -45 29.5 -97.5t52.5 -72t107.5 -36.5t148.5 -17h8v47q-125 4 -168 49q-16 18 -30.5 88t-14.5 135v92q0 74 -16.5 160t-35.5 112.5t-79.5 59.5t-114.5 43q53 10 114 42t81 58.5t35.5 111.5 t15.5 161v92q0 68 14.5 138.5t32 88t69.5 32.5t97 15v50q-68 0 -150.5 -17.5t-110.5 -37t-53.5 -71t-31.5 -98.5t-6 -272q0 -53 -16.5 -114.5t-37 -82t-81 -42t-113.5 -25.5v-58z" />
<glyph unicode="|" horiz-adv-x="155" d="M25 -141l34 16l60 1710l-94 -26v-1700z" />
<glyph unicode="}" horiz-adv-x="528" d="M-31 -55q125 4 168 49q16 18 30.5 88t14.5 135v92q0 74 16.5 160t36 113.5t79 59.5t112.5 42q-51 10 -111.5 42t-81 58.5t-36 111.5t-15.5 161v92q0 68 -14 138.5t-31.5 88t-70 32.5t-97.5 15v50q68 0 151 -17.5t110.5 -37t54 -71t30.5 -96.5l4 -274q0 -53 16.5 -114.5 t37 -82t81 -42t113.5 -25.5v-58q-53 -4 -113.5 -24.5t-81 -41t-37 -82t-16.5 -116.5l-4 -270q-6 -45 -31.5 -97.5t-52 -72t-106.5 -36.5t-148 -17h-8v47z" />
<glyph unicode="~" horiz-adv-x="626" d="M6 979q47 39 115 39l108 -21l109 -18q70 0 150.5 46t109.5 99q-49 -33 -115 -32l-256 41q-80 0 -142 -44.5t-79 -109.5z" />
<glyph unicode="&#xa0;" />
<glyph unicode="&#xa1;" horiz-adv-x="329" d="M18 -10q20 59 25 164l27 788q2 51 65 90l105 51l20 -809q2 -84 25 -159zM63 1067l5 61v107q0 76 49 102l143 76q-18 -45 -12 -174q2 -68 -35 -88z" />
<glyph unicode="&#xa2;" horiz-adv-x="542" d="M-29 926l207 75v265l88 18l-10 -74l-6 -180l143 60l121 -304q-80 -35 -178 -100l-29 -33l-10 -8q23 61 0 115q-88 207 -98 207v-486q0 -39 46 -75.5t101 -43.5q106 -14 180 17l6 -6l-165 -183h-80l-70 9l-4 -166l-35 -13v185q-68 14 -124 75.5t-56 122.5v404 q0 80 -27 119z" />
<glyph unicode="&#xa3;" horiz-adv-x="931" d="M-14 465l80 121h151v82h-49l-152 -19l80 121h121l-2 250q0 104 -31 147q84 16 263.5 86t310.5 136q47 -96 145 -254q-84 -35 -211 -123l-35 -41q-2 -4 -8 -4l15 57l-19 68l-82 127q-12 18 -37 18q-20 0 -38.5 -42t-18.5 -91v-334h113l149 21l-78 -123h-184v-82h82l149 20 l-79 -125h-152v-209q0 -20 25.5 -38.5t54.5 -20.5l207 -12q43 4 87 20.5t52 32.5l8 -2l-190 -287l-375 29q-45 4 -83 24.5t-38 42.5v420h-82z" />
<glyph unicode="&#xa4;" horiz-adv-x="983" d="M-29 481l88 13h138v-242q0 -88 18 -125q33 -53 170 -102.5t268 -55.5l90 11q47 39 150 198q78 123 94 168l-14 4q-25 -63 -108 -110t-158 -43q-92 6 -168 56t-76 103v138h321l64 122l-78 -16h-307v64h321l64 120l-78 -14h-307v354q0 53 20.5 97.5t42.5 44.5q27 0 39 -21 l119 -192q16 -27 16 -68t-22 -94l20 10q10 41 39 66q80 72 226 131q-113 170 -187 329q-139 -72 -330.5 -145.5t-283.5 -89.5q35 -47 35 -158v-264h-160l-66 -121l88 15h138v-64h-160z" />
<glyph unicode="&#xa5;" horiz-adv-x="1372" d="M-49 1118l2 -10q49 45 108 61l115 17q74 0 119 -29v-321h-242l-30 -119l272 20v-100h-242l-30 -119l272 21v-244q0 -80 114.5 -161t252.5 -99l147 147v-272q0 -55 -67.5 -102.5t-161.5 -47.5q-104 0 -205 64q-49 31 -89 97.5t-36 113.5l2 26q4 51 43 95q-10 8 -33 -17 q-131 -145 -149 -200q-14 -45 -15 -95q0 -86 44 -137t134.5 -92t151.5 -41l86 8q55 16 94 47l82 64q94 72 234 239q57 70 105 177.5t48 166.5v263h256l31 118l-287 -20v100h256l41 131q-49 -25 -176 -28l-121 -4v458q0 86 -12 99l-272 -113q16 -25 16 -100v-344h-262v505 q0 25 -31 27l-145 6q-74 4 -154 -39q-43 -23 -172 -123q-94 -74 -94 -94zM547 365v174h262v-238q0 -31 -14.5 -52.5t-30.5 -17.5q-94 23 -155.5 61t-61.5 73zM547 637v100h262v-100h-262z" />
<glyph unicode="&#xa6;" horiz-adv-x="419" d="M37 -178q29 27 52.5 99.5t23.5 131.5v1129q0 58 -25 78q154 76 272 145v-1047q0 -74 -59 -202q-61 -137 -139 -217l-117 -121z" />
<glyph unicode="&#xa7;" horiz-adv-x="847" d="M-47 416q63 66 282.5 385t415.5 635v-852h76q45 0 100.5 30.5t75.5 65.5l6 -14l-28 -62q-53 -115 -103.5 -165t-126.5 -54l-2 -35q-4 -82 -57 -207q-55 -135 -123 -204l-117 -121l-8 4q29 27 52.5 99.5t23.5 131.5v340zM164 586h254v348z" />
<glyph unicode="&#xa8;" horiz-adv-x="542" d="M37 1085q0 20 37 119l71 -18q59 -39 60 -88l-12 -56l-23 -57q-82 4 -119 53q-14 18 -14 47zM322 1085l34 119l72 -18q59 -39 59 -88l-12 -56l-22 -57q-80 4 -117 53q-14 18 -14 47z" />
<glyph unicode="&#xa9;" horiz-adv-x="1437" d="M-18 682q0 -111 64.5 -267.5t142 -234.5t234.5 -143.5t267 -65.5q109 0 264.5 65.5t233.5 144.5t143.5 234.5t65.5 266.5q0 109 -65.5 264.5t-144.5 233t-233.5 143.5t-263.5 66q-111 0 -267.5 -66t-234 -143.5t-142 -233t-64.5 -264.5zM41 682q0 100 59.5 241.5t131 213 t215 131t243.5 59.5t242.5 -59.5t214.5 -130t130 -213t58 -242.5t-58 -243.5t-130 -215t-214 -131t-243 -59.5q-100 0 -243.5 59.5t-215 131t-131 214t-59.5 244.5zM362 1063q72 14 221.5 70.5t256.5 111.5q47 -109 143 -256l-176 -100q4 -102 -51 -182l-13 4q39 43 39 163 q0 59 -14 82l-90 148q-10 18 -31 18q-18 0 -33.5 -35.5t-15.5 -76.5v-590q0 -43 58.5 -82t127.5 -43q59 -4 124 33t81 84l12 -2l-71 -129q-57 -102 -117 -152l-72 -8q-102 6 -206.5 44t-128.5 77q-14 25 -15 96v604q0 78 -29 121z" />
<glyph unicode="&#xaa;" horiz-adv-x="675" d="M-33 799l31 57h90v117q0 90 -29 110q102 12 207 82q96 63 125 117q33 -41 111 -96q63 -45 114 -45q25 0 35 14l-6 -18q-37 -47 -93 -87t-87 -40q-29 0 -81 31.5t-85 70.5q-10 -6 -10 -55v-201h231l-37 -57h-194v-609l80 -38q20 -18 73 -31l-159 -172l-256 129 q23 20 42 60t19 69v592h-121z" />
<glyph unicode="&#xab;" horiz-adv-x="866" d="M-10 612l469 -307v98l-385 248l385 250v96l-469 -303v-82zM377 612l471 -307v101l-385 247l385 248v96l-471 -303v-82z" />
<glyph unicode="&#xac;" horiz-adv-x="884" d="M-55 596h123v-789q0 -141 -33 -231q88 57 161.5 178t73.5 207v635h107v-789q0 -137 -33 -231q88 57 162 178t74 207v635h92l35 55h-127v307q0 53 10 58q37 -39 89 -72t81 -33q33 0 89 40t91 87q12 16 8 21q-12 -16 -37 -17q-59 0 -114 48l-113 94q-31 -55 -125 -117 q-109 -70 -211 -82q29 -20 29 -111v-223h-107v455q0 51 9 59q35 -39 88 -71.5t82 -32.5q33 0 90 39t92 86l6 20q-10 -14 -39 -14q-49 0 -115 45q-78 53 -110 96q-35 -55 -127 -116q-113 -74 -209 -82q31 -23 31 -113v-371h-93z" />
<glyph unicode="&#xae;" horiz-adv-x="782" d="M-6 971q0 -61 36 -147.5t78 -128.5t126.5 -77.5t144.5 -35.5q61 0 146 35.5t128 78.5t78 129t35 146q0 59 -36 145t-78 128t-128 77t-145 35t-145.5 -36t-128.5 -78t-76.5 -127t-34.5 -144zM41 971q0 53 30.5 126.5t68.5 111.5t112 69t127 31t129 -32t112.5 -69 t67.5 -111.5t31 -125.5q0 -53 -31 -129t-67.5 -113t-112.5 -67.5t-129 -30.5t-128 30.5t-112 67.5t-67.5 113t-30.5 129zM162 1130l31 33q72 55 110 60q90 8 150 -31q51 -35 51 -92q0 -31 -29 -72t-63 -57l88 -154q27 -47 43 -59l-84 -37l-35 57l-90 166l-15 -2v-72 q0 -66 15 -79l-88 -39q-8 12 -8 34v326l69 41l-114 -4zM319 958q39 0 64 31t25 70q0 31 -28 59.5t-61 32.5v-193z" />
<glyph unicode="&#xaf;" />
<glyph unicode="&#xb1;" horiz-adv-x="983" d="M-51 805l33 55h90v141q0 92 -31 111q102 12 209 82q96 61 123 121q37 -47 110 -96q61 -43 105 -54q-45 -29 -117 -59.5t-104 -30.5q-45 27 -84 70q-10 -6 -11 -58v-227h146v84q0 92 -29 113q100 12 209 82q98 63 123 116l110 -96q53 -47 115 -47q29 0 37 16l-6 -20 q-35 -47 -91.5 -87t-88.5 -40q-27 0 -79 33t-87 71q-10 -6 -10 -57v-168h229l-37 -55h-195v-524q0 -37 42 -73t92 -44q-70 -129 -103 -174q-135 12 -186 61q-45 43 -45 131v623h-146v-531q0 -39 41 -74.5t88 -39.5q-66 -125 -102 -170q-137 12 -186 59q-43 41 -43 137v619 h-121z" />
<glyph unicode="&#xb2;" horiz-adv-x="1667" d="M29 1128q0 23 94 97q119 92 174 123q84 45 154 43l145 -7q33 -2 33 -30v-1039q0 -37 43 -71q51 -41 149 -64q16 -4 29.5 18.5t13.5 53.5v397l-192 -20l84 129h108v432q0 78 -16 102l256 115q16 -20 16 -100v-994q0 -35 54.5 -75.5t119.5 -55.5q18 -4 32.5 18.5t14.5 53.5 v397h-18l-162 -20l84 129h96v430q0 78 -16 102l270 115q16 -20 17 -100v-1069q-106 -16 -262 -91l-158 -165q-121 16 -188 47q-80 37 -115 108l-172 -155q-129 16 -235.5 99t-106.5 165v405l-223 -20l86 129h137v409l-236 13q-63 -16 -108 -62z" />
<glyph unicode="&#xb3;" horiz-adv-x="843" d="M-59 1118l4 -8q49 49 108 61q37 8 353 9l-193 -105v-999q0 -94 25 -135l278 114q-14 16 -27.5 96t-13.5 158v334h156q29 0 28 -53q0 -43 -14 -90l8 4q41 94 86 151l76 97h-340v428q76 2 166 -17.5t121 -42.5q12 -12 12 -53q0 -113 -43 -172l10 -2q25 31 43.5 101.5 t16.5 120.5t102 257l-541 2q-84 0 -153 -39l-174 -121q-94 -66 -94 -96z" />
<glyph unicode="&#xb4;" horiz-adv-x="350" d="M-2 1012l22 -17l279 207q25 25 25 51q0 27 -21.5 50.5t-48.5 23.5q-31 0 -53 -33z" />
<glyph unicode="&#xb6;" horiz-adv-x="796" d="M35 1126q0 29 94 97l172 123q82 45 154 40l245 -14q33 -2 33 -31l-2 -1181q0 -45 -40 -141.5t-87 -165.5q-53 -78 -144 -150t-149 -80h-59q-18 8 -14 27l47 -6q70 0 127 99t57 220v682h-49l-160 -20l84 127h125v407l-178 19l-144 2q-59 -12 -110 -60z" />
<glyph unicode="&#xb8;" horiz-adv-x="251" d="M-16 -250l49 -84q53 -2 123.5 29t101.5 69v140l14 61l-172 -16v74h-51v-154q78 25 127 25v-78q0 -27 -46 -48.5t-101 -21.5z" />
<glyph unicode="&#xb9;" horiz-adv-x="1007" d="M-49 1106q0 31 100 98l182 123q92 51 162 53l94 4q88 4 209 -36.5t176 -87.5q49 -43 89.5 -131.5t40.5 -151.5t-43 -160.5t-95 -148.5q-57 -57 -188 -121t-232 -82v-166q0 -74 12.5 -149.5t26.5 -92.5l-274 -118q-23 33 -23 108v1002l218 116l-355 -10q-47 -10 -96 -55z M446 514q43 2 103.5 36t89.5 74t51.5 111.5t22.5 120.5q0 43 -20.5 104.5t-45 93t-88 65.5t-113.5 40v-645z" />
<glyph unicode="&#xba;" horiz-adv-x="428" d="M29 1110q0 -70 49 -119t119 -49t117.5 50t47.5 118t-48 116t-117 48q-70 0 -119 -47t-49 -117zM90 1108q0 43 32 74.5t75 31.5q41 0 72.5 -31.5t31.5 -74.5t-30.5 -73.5t-73.5 -30.5q-45 0 -76 30.5t-31 73.5z" />
<glyph unicode="&#xbb;" horiz-adv-x="866" d="M-4 305v101l385 245l-385 250v96l469 -303v-82zM383 305v98l387 248l-387 250v96l471 -303v-82z" />
<glyph unicode="&#xbc;" horiz-adv-x="1056" d="M-35 1106q0 31 101 98l182 123q63 43 162 53q27 2 57 2q106 0 224 -26.5t174.5 -66.5t104.5 -129t48 -154q0 -43 -21.5 -110t-48 -105.5t-93.5 -95t-118 -83.5l203 -387q70 -133 129 -180q-227 -96 -256 -115q-41 47 -102 172l-211 426l-41 -6v-221q0 -76 13 -152.5 t28 -93.5l-277 -114q-23 31 -22 106v1002l217 116l-352 -10q-51 -12 -99 -55zM459 569q43 2 102.5 33t88 65.5t52 102.5t23.5 113q0 39 -19.5 94t-44 84t-89 60.5t-113.5 39.5v-592z" />
<glyph unicode="&#xbd;" horiz-adv-x="1769" d="M-125 1124q0 29 94 97l172 122q80 47 154 43l145 -6q41 -8 41 -28v-1039q0 -35 56.5 -73.5t156.5 -61.5q18 -4 33.5 18.5t15.5 51.5v938q0 76 -20 100l272 115q16 -16 17 -101v-1026q0 -96 -74 -227q-66 -117 -170 -225l817 -58l166 23l145 43q-82 -121 -166.5 -223.5 t-105.5 -106.5l-80 -6l-973 121q68 63 120 153.5t52 137.5v221l-151 -147q-137 18 -253 100t-116 162v409l-231 -20l84 129h147l-2 405l-233 13q-61 -16 -111 -62z" />
<glyph unicode="&#xbe;" horiz-adv-x="1218" d="M31 1118l2 -10q49 49 108 61l234 -10v-407h-135l-86 -127l161 20h60v-350q0 -80 114.5 -161t251.5 -99l150 147v-254q0 -41 -38 -74.5t-83 -33.5q-98 0 -235 63q-125 57 -156 103l-103 -172q-14 -25 -14 -43q0 -39 103 -107q47 -31 140 -59.5t161 -30.5l338 358 q59 63 106 172t47 172v1018q0 78 -16 99l-269 -113q18 -27 19 -100v-879q0 -31 -15.5 -52.5t-31.5 -17.5q-98 23 -157.5 62t-59.5 72v976q0 29 -31 31l-145 6q-70 2 -154 -43q-49 -27 -172 -123q-94 -74 -94 -94z" />
<glyph unicode="&#xbf;" horiz-adv-x="624" d="M-123 281q0 55 31 139t69.5 133t129 104.5t155.5 71.5q-94 37 -94 78v133q0 27 23.5 65t52.5 54l123 57l-7 -129l-2 -166q8 -78 23 -82q-55 -12 -126 -49t-97.5 -67.5t-46 -85t-19.5 -91.5q0 -39 20.5 -94t44 -83.5t74 -52t86.5 -23.5q84 0 170 59q20 14 37 49t17 64 l-15 71q14 4 25.5 -30.5t11.5 -79.5q0 -53 -35.5 -127t-78.5 -113t-123 -70.5t-131 -31.5q-88 0 -162 34q-59 29 -107.5 111t-48.5 152zM178 1102v127q0 33 16.5 69.5t36.5 44.5l146 66q-2 -23 -2 -137q0 -29 -16.5 -60.5t-34.5 -40.5z" />
<glyph unicode="&#xc0;" horiz-adv-x="1017" d="M-72 1112q0 25 95 98q121 94 172 121q72 39 153 37q229 -4 367 -51q76 -27 137 -95.5t61 -125.5v-875l84 -41q63 -31 95 -30l-174 -160l-31 -8q-27 0 -99 36q-156 80 -194 88q70 86 70 154v262l-265 2v-213q0 -72 -62.5 -204t-137.5 -213l-115 -123l-10 4 q29 27 52.5 100.5t23.5 132.5l2 1047l206 116l-333 -10q-45 -12 -95 -55zM332 1679q0 27 20.5 51.5t50.5 24.5q27 0 52 -35l202 -282l-22 -17l-279 207q-25 25 -24 51zM399 631h265v391q0 37 -72 80q-82 49 -193 65v-536z" />
<glyph unicode="&#xc1;" horiz-adv-x="1013" d="M-76 1112q0 33 94 98l172 121q68 39 154 37q225 -4 365 -51q76 -27 137 -95.5t61 -125.5v-875l86 -41q63 -31 92 -30l-172 -158l-32 -10q-29 0 -99 36q-145 78 -194 88q68 84 67 154v262l-264 2v-213q0 -70 -62.5 -199.5t-135.5 -217.5q-104 -123 -115 -123l-10 4 q29 27 52 99.5t23 133.5v1047l211 116l-336 -10q-47 -10 -92 -55zM391 631h264v391q0 37 -71 80q-82 49 -193 65v-536zM535 1458l22 -14l279 207q25 18 24 51q0 31 -21.5 52.5t-47.5 21.5q-31 0 -54 -31z" />
<glyph unicode="&#xc2;" horiz-adv-x="1017" d="M-72 1112q0 25 95 98q121 94 172 121q72 39 153 37q229 -4 367 -51q76 -27 137 -95.5t61 -125.5v-875l84 -41q63 -31 95 -30l-174 -160l-31 -8q-27 0 -99 36q-156 80 -194 88q70 86 70 154v262l-265 2v-213q0 -72 -62.5 -204t-137.5 -213l-115 -123l-10 4 q29 27 52.5 100.5t23.5 132.5l2 1047l206 116l-333 -10q-45 -12 -95 -55zM-41 1440q53 4 138 33.5t130 60.5q45 -33 127.5 -62.5t137.5 -31.5q-61 41 -143.5 123t-119.5 139q-82 -123 -270 -262zM399 631h265v391q0 37 -72 80q-82 49 -193 65v-536z" />
<glyph unicode="&#xc3;" horiz-adv-x="1017" d="M-72 1112q0 25 95 98q121 94 172 121q72 39 153 37q229 -4 367 -51q76 -27 137 -95.5t61 -125.5v-875l84 -41q63 -31 95 -30l-174 -160l-31 -8q-27 0 -99 36q-156 80 -194 88q70 86 70 154v262l-265 2v-213q0 -72 -62.5 -204t-137.5 -213l-115 -123l-10 4 q29 27 52.5 100.5t23.5 132.5l2 1047l206 116l-333 -10q-45 -12 -95 -55zM-45 1470q49 41 117 41l215 -41q70 0 150.5 46.5t109.5 99.5q-45 -31 -113 -31l-129 19l-127 20q-84 0 -145.5 -43t-77.5 -111zM399 631h265v391q0 37 -72 80q-82 49 -193 65v-536z" />
<glyph unicode="&#xc4;" horiz-adv-x="1013" d="M-76 1112q0 33 94 98l172 121q68 39 154 37q225 -4 365 -51q76 -27 137 -95.5t61 -125.5v-875l86 -41q63 -31 92 -30l-172 -158l-32 -10q-29 0 -99 36q-145 78 -194 88q66 86 65 154v262l-264 2v-213q0 -70 -62.5 -199.5t-136.5 -217.5q-104 -123 -114 -123l-8 4 q29 27 52 99.5t23 133.5v1047l211 116l-336 -10q-47 -10 -92 -55zM346 1587q0 16 39 129q39 1 76 -22q68 -41 67 -95l-14 -61l-27 -59q-33 2 -71.5 19.5t-54 40t-15.5 48.5zM389 631h264v391q0 37 -71 80q-82 49 -193 65v-536zM653 1587q0 16 39 129q39 0 76 -22 q68 -41 68 -95l-15 -61l-24 -59q-33 2 -74 19.5t-55.5 36.5t-14.5 52z" />
<glyph unicode="&#xc5;" horiz-adv-x="1013" d="M-76 1112q0 33 94 98l175 121q72 41 151 39q223 -2 367 -53q74 -27 135 -95.5t61 -123.5v-877l86 -41q68 -33 94 -28l-176 -162l-28 -8q-29 0 -99 36q-150 78 -196 88q70 86 69 154v262l-264 2v-213q0 -72 -61.5 -205t-136.5 -212l-115 -123l-12 4q29 27 53 100.5 t24 132.5v1047l209 116l-334 -10q-47 -10 -92 -55zM393 631h264v391q0 37 -71 80q-82 49 -193 65v-536zM430 1581q0 -70 49 -119t119 -49q68 0 117 49t49 119t-50 118t-116 48q-70 0 -119 -49t-49 -117zM492 1581q0 41 29.5 73t76.5 32q43 0 73.5 -31t30.5 -74t-30.5 -73.5 t-73.5 -30.5t-74.5 29.5t-31.5 74.5z" />
<glyph unicode="&#xc6;" horiz-adv-x="1294" d="M-78 1061l2 -6q41 41 88 49l318 14l-199 -114v-996q0 -57 -22.5 -126.5t-51.5 -96.5l9 -4q12 0 112 117q70 82 129.5 207.5t59.5 191.5v201l254 -2v-263q0 -84 18 -114q31 -49 158 -95.5t247 -52.5l86 11l199 221l8 16q-29 -23 -106 -35l-109 -2q-94 10 -174 57.5 t-80 92.5v282h148q12 0 22.5 -17t8.5 -38l-5 -49l-4 -31q35 84 82 146l72 92h-324v407q72 2 158 -16t117 -41q12 -12 12 -55q0 -98 -31 -164q23 31 40.5 97.5t15.5 117.5q-2 76 96 246l-518 2q-76 0 -146 -41l-293 35q-63 8 -143 -37l-166 -115q-88 -61 -88 -92zM367 602 h254v373q0 35 -68 76q-78 47 -186 59v-508z" />
<glyph unicode="&#xc7;" horiz-adv-x="780" d="M-37 1192q37 -49 37 -158v-780q0 -94 20.5 -126t85 -70t121.5 -54v-203q76 27 142 27v-88q0 -31 -53.5 -55.5t-112.5 -20.5l-51 4l55 -94q59 -2 139 33t115 78v155l14 70l-190 -21v103l172 -23l90 11q74 57 151 198l95 168l-17 4q-25 -63 -106.5 -110t-157.5 -43 q-92 6 -168 56t-76 103v768q0 53 20.5 97.5t43.5 44.5q27 0 39 -21l116 -190q16 -37 17 -107q0 -154 -45 -215l12 -2q27 39 48.5 111.5t19.5 124.5q156 100 227 131q-113 170 -186 329q-139 -72 -332 -145.5t-285 -89.5z" />
<glyph unicode="&#xc8;" horiz-adv-x="913" d="M-63 1118l2 -8q49 49 108 61q39 8 352 9l-190 -105v-829q0 -92 18 -121q33 -51 166 -99.5t260 -54.5l90 11q152 156 209 231q14 12 9 18q-45 -35 -113 -36l-113 -5q-100 12 -182 61.5t-82 96.5v297h154q29 0 28 -53l-12 -92l6 4q43 98 86 151l78 97h-340v428 q76 2 166 -17.5t119 -42.5q12 -12 12 -53q0 -113 -43 -172q8 -8 10 -2q25 33 44.5 102.5t17.5 120.5q-2 31 30.5 112t71.5 144l-543 2q-84 0 -153 -39l-172 -121q-94 -66 -94 -96zM373 1679q0 27 22 51.5t49 24.5q29 0 54 -35l202 -282l-22 -17l-279 207q-27 20 -26 51z" />
<glyph unicode="&#xc9;" horiz-adv-x="913" d="M-66 1118l5 -8q49 49 110 61q39 8 350 9l-190 -105v-829q0 -92 18 -121q33 -51 166 -99.5t260 -54.5l90 11l211 231l7 18q-39 -35 -111 -36l-115 -5q-100 12 -183 61.5t-83 96.5v297h156q29 0 28 -53q0 -39 -14 -92l6 4q49 100 88 151l76 97h-340v428q78 2 168 -17.5 t121 -42.5q12 -12 12 -53q0 -115 -45 -172q6 -6 10 -2q25 33 43.5 101.5t16.5 121.5q-2 31 30.5 111t73.5 145l-545 2q-82 0 -151 -39l-172 -121q-96 -68 -97 -96zM545 1434l24 -17l279 207q25 25 24 51q0 29 -23.5 52.5t-47.5 23.5q-27 0 -51 -35z" />
<glyph unicode="&#xca;" horiz-adv-x="911" d="M-63 1118l2 -8q49 49 108 61q39 8 352 9l-190 -105v-829q0 -92 18 -121q33 -51 166 -99.5t260 -54.5l90 11q152 156 209 231q14 12 9 18q-45 -35 -113 -36l-113 -5q-100 12 -182 61.5t-82 96.5v297h154q29 0 28 -53l-12 -92l6 4q43 98 86 151l78 97h-340v428 q76 2 166 -17.5t119 -42.5q12 -12 12 -53q0 -113 -43 -172q8 -8 10 -2q25 33 44.5 102.5t17.5 120.5q-2 31 30.5 112t71.5 144l-543 2q-84 0 -153 -39l-172 -121q-94 -66 -94 -96zM-12 1440q53 4 137 33.5t131 60.5q43 -33 126 -61.5t138 -32.5q-61 41 -143 123t-119 139 q-82 -123 -270 -262z" />
<glyph unicode="&#xcb;" horiz-adv-x="913" d="M-66 1118l5 -8q49 49 110 61q39 8 350 9l-190 -105v-829q0 -92 18 -121q33 -51 166 -99.5t260 -54.5l90 11l211 231l7 18q-39 -35 -111 -36l-115 -5q-100 12 -183 61.5t-83 96.5v297h156q29 0 28 -53q0 -39 -14 -92l6 4q49 100 88 151l76 97h-340v428q78 2 168 -17.5 t121 -42.5q12 -12 12 -53q0 -115 -45 -172q6 -6 10 -2q25 33 43.5 101.5t16.5 121.5q-2 31 30.5 111t73.5 145l-545 2q-82 0 -151 -39l-172 -121q-96 -68 -97 -96zM356 1587q0 23 41 129q37 0 74 -22q68 -42 68 -95l-15 -61l-22 -59q-90 4 -129 57q-16 23 -17 51zM666 1587 q0 16 39 129q39 0 75 -22q68 -42 68 -95l-14 -61l-27 -59q-33 2 -72 19.5t-54 40t-15 48.5z" />
<glyph unicode="&#xcc;" horiz-adv-x="657" d="M-29 1118q0 20 95 94q127 98 172 123q78 41 153 39l152 -6q33 -2 32 -27v-1030q0 -201 37 -254l-274 -114q-25 33 -25 94v608h-59l-158 -20l84 127h133v405l-229 12q-61 -12 -111 -61zM166 1700q0 27 20.5 51.5t51.5 24.5q27 0 51 -35l203 -283l-23 -16l-279 207 q-25 25 -24 51z" />
<glyph unicode="&#xcd;" horiz-adv-x="632" d="M-72 1118q0 27 95 94l172 123q80 41 153 39l152 -6q35 -2 35 -27l-3 -1030q0 -201 37 -254l-274 -114q-25 35 -25 94l2 151v457h-61l-158 -20l84 127h135v405l-231 12q-61 -12 -111 -61zM352 1446l23 -14l280 204q25 25 25 52q0 31 -22.5 53t-47.5 22q-31 0 -55 -34z" />
<glyph unicode="&#xce;" horiz-adv-x="804" d="M-29 1440q53 4 137.5 33.5t131.5 60.5q43 -33 126 -61.5t138 -32.5q-61 41 -143 123t-119 139q-82 -123 -271 -262zM121 1118q0 20 94 94q127 98 172 123q78 41 154 39l151 -6q33 -2 33 -27v-1030q0 -201 37 -254l-275 -114q-25 33 -24 94v608h-60l-157 -20l84 127h133 v405l-230 12q-61 -12 -110 -61z" />
<glyph unicode="&#xcf;" horiz-adv-x="643" d="M-41 1118q0 20 94 94q127 98 172 123q78 41 154 39l151 -6q35 -2 35 -27l-2 -1030q0 -201 37 -254l-274 -114q-25 35 -25 94l2 151v457h-61l-158 -20l84 127h135v405l-231 12q-61 -12 -111 -61zM168 1587q0 16 39 129q41 0 78 -22q68 -41 67 -95l-16 -61l-25 -59 q-35 2 -73.5 19.5t-54 39.5t-15.5 49zM475 1587q0 23 41 129q39 0 76 -22q66 -41 65 -95l-14 -61l-22 -59q-90 4 -129 57q-16 23 -17 51z" />
<glyph unicode="&#xd0;" horiz-adv-x="1089" d="M16 659l95 13h143v-582q53 -43 136 -76.5t128 -29.5q66 4 162 47t146.5 90t106.5 140t75 157q35 121 39 352q2 150 -27 305.5t-68 192.5q-49 47 -174 88t-223 35l-104 -7q-74 -4 -152 -43l-172 -118q-35 -25 -65.5 -57.5t-30.5 -41.5l4 -6q41 45 92 53l334 13l-207 -119 v-287h-168zM498 270v402h155l68 123l-82 -17h-141v400q106 -18 196 -90t92 -140l5 -233q4 -188 -11 -369q-14 -172 -30 -184l-17 -4q-55 0 -235 112z" />
<glyph unicode="&#xd1;" horiz-adv-x="1140" d="M-70 1118q0 20 95 94q117 92 172 123q86 47 153 43l154 -8q31 -2 31 -29v-163l139 202q160 -21 258 -82q41 -27 75.5 -84t34.5 -98v-883l91 -53q45 -33 92 -28l-172 -158q-20 -14 -47 -14q-39 0 -93 28l-182 98q47 59 47 148v762q0 37 -45 69q-53 39 -139 60 q-18 4 -38.5 -33t-20.5 -96v-684q0 -72 -68 -209t-148 -232q-104 -123 -114 -122l-10 4q29 27 53 99.5t24 131.5v1155l-231 10q-59 -12 -109 -61zM274 1507q47 35 117 35l107 -18l106 -17q70 0 152 44t110 98q-49 -29 -112 -29l-258 37q-82 0 -143.5 -42t-78.5 -108z" />
<glyph unicode="&#xd2;" horiz-adv-x="968" d="M-4 1128q0 31 94 97l176 123q63 35 150 36q106 4 235 -32.5t178 -83.5q39 -39 69 -193.5t28 -304.5q-4 -240 -37 -354q-18 -63 -76.5 -156.5t-111 -142.5t-140.5 -94.5t-141 -47.5q-57 -4 -137 44.5t-117 107.5q-14 23 -26.5 174.5t-12.5 308.5q0 135 15.5 265.5 t31.5 148.5q61 66 244 154q-213 25 -326 -2q-51 -12 -92 -54zM264 1679q0 27 20.5 51.5t51.5 24.5q27 0 51 -35l203 -282l-23 -17l-278 207q-25 25 -25 51zM395 721q0 -408 37 -471q31 -53 94.5 -87t89.5 -34q8 0 11 4q16 12 20 266q6 256 -4 549q-4 99 -33 142 q-14 23 -59 47t-84 32q-27 -16 -49.5 -156.5t-22.5 -291.5z" />
<glyph unicode="&#xd3;" horiz-adv-x="966" d="M-4 1128q0 21 94 97q106 84 172 118q74 39 154 41q106 4 235 -32.5t178 -83.5q39 -39 69 -194.5t28 -305.5q-4 -238 -37 -352q-18 -63 -76.5 -156.5t-111 -142.5t-140.5 -94.5t-141 -47.5q-57 -4 -137 44.5t-117 107.5q-14 23 -26.5 174.5t-12.5 308.5q0 137 14.5 267.5 t30.5 146.5q63 68 246 154q-215 25 -326 -2q-53 -12 -94 -54zM393 721q0 -152 12.5 -299.5t26.5 -171.5q31 -53 94.5 -87t89.5 -34q8 0 11 4q16 12 20 266q6 256 -4 549q-4 99 -33 142q-14 23 -60 47t-85 32q-27 -16 -49.5 -156.5t-22.5 -291.5zM428 1446l25 -14l276 204 q27 20 27 52q0 31 -22.5 53t-47.5 22q-31 0 -55 -34z" />
<glyph unicode="&#xd4;" horiz-adv-x="1060" d="M-10 1440q53 4 137 33.5t131 60.5q43 -33 126 -61.5t138 -32.5q-61 41 -143 123t-119 139q-82 -123 -270 -262zM90 1128q0 31 94 97l176 123q63 35 150 36q106 4 235 -32.5t179 -83.5q39 -39 68.5 -193.5t27.5 -304.5q-4 -240 -37 -354q-18 -63 -76.5 -156.5t-111 -142.5 t-140.5 -94.5t-141 -47.5q-57 -4 -137 44.5t-117 107.5q-14 23 -26.5 174.5t-12.5 308.5q0 135 15.5 265.5t31.5 148.5q61 66 244 154q-213 25 -326 -2q-51 -12 -92 -54zM489 721q0 -408 37 -471q31 -53 94.5 -87t90.5 -34l10 4q16 12 20 266q6 256 -4 549q-3 99 -32 142 q-14 23 -59.5 47t-84.5 32q-27 -16 -49.5 -156.5t-22.5 -291.5z" />
<glyph unicode="&#xd5;" horiz-adv-x="1107" d="M-4 1493q47 39 115 39l108 -21l109 -18q70 0 150.5 46t109.5 99q-49 -33 -115 -32l-256 41q-80 0 -142.5 -44t-78.5 -110zM131 1128q0 31 94 97l178 123q59 35 148 36q106 4 236.5 -32.5t179.5 -83.5q39 -39 68.5 -193.5t27.5 -304.5q-4 -231 -39 -354 q-18 -63 -76.5 -157.5t-111 -142.5t-140.5 -93.5t-141 -47.5q-59 -4 -138 44.5t-116 107.5q-14 23 -25.5 173.5t-11.5 309.5q0 137 14.5 267.5t30.5 146.5q66 68 244 154q-215 25 -326 -2q-51 -12 -92 -54zM532 721q0 -150 11.5 -298.5t23.5 -172.5q33 -53 94.5 -87 t90.5 -34l12 4q14 12 20 266q4 250 -4 549q-2 95 -35 142q-41 59 -141 79q-27 -16 -49.5 -156.5t-22.5 -291.5z" />
<glyph unicode="&#xd6;" horiz-adv-x="970" d="M-4 1128q0 21 94 97q106 84 172 118q74 39 154 41q106 4 235 -32.5t178 -83.5q39 -39 69 -194.5t28 -305.5q-4 -238 -37 -352q-18 -63 -76.5 -156.5t-111 -142.5t-140.5 -94.5t-141 -47.5q-57 -4 -137 44.5t-117 107.5q-14 23 -26.5 174.5t-12.5 308.5q0 137 14.5 267.5 t30.5 146.5q63 68 246 154q-215 25 -326 -2q-53 -12 -94 -54zM264 1587q0 16 39 129q41 0 78 -22q65 -42 65 -95l-14 -61l-24 -59q-35 2 -74 19.5t-54.5 40t-15.5 48.5zM393 721q0 -152 12.5 -299.5t26.5 -171.5q31 -53 94.5 -87t89.5 -34q8 0 11 4q16 12 20 266 q6 256 -4 549q-4 99 -33 142q-14 23 -59 47t-84 32q-27 -16 -50.5 -156.5t-23.5 -291.5zM571 1587q0 23 41 129q39 0 76 -22q66 -41 66 -95l-15 -61l-24 -59q-88 4 -127 57q-16 23 -17 51z" />
<glyph unicode="&#xd7;" horiz-adv-x="841" d="M0 748l188 151l13 2q37 0 88 -53q63 -66 71 -137v-482l119 -61q31 -16 68 12v467l-111 74l-65 20q94 78 168 172q152 -94 254 -139q-39 -35 -39 -90v-621q0 -86 34 -155q-47 -4 -123.5 -31t-121.5 -55q-102 -66 -152 -146q-27 43 -91 78t-112 35q-35 0 -86 -25.5 t-75 -54.5q4 39 33.5 94.5t59.5 84t87 52t96 23.5q47 0 121 -37t113 -82l10 9v297l-92 -93l-72 -88l-256 127l-39 8l47 68q14 25 15 84v369q-23 63 -68 104z" />
<glyph unicode="&#xd8;" horiz-adv-x="983" d="M10 1128l2 -6q41 41 92 54q98 23 326 2q-188 -94 -244 -154q-18 -18 -32.5 -146t-14.5 -266q0 -160 12.5 -311t28.5 -174l25 -37l-99 -219l117 45l45 111q29 -23 80 -38.5t84 -13.5q55 4 143.5 48.5t140.5 93.5t110.5 142t74.5 157q33 119 37 352q4 205 -8 283 q-10 63 -47 140t-72 105l113 234l-123 -53l-56 -138q-43 20 -140 35t-175 10q-84 -4 -154 -41q-61 -33 -172 -118q-94 -74 -94 -97zM408 721q-4 147 20 288.5t51 159.5q45 -10 93.5 -40.5t60.5 -57.5l-221 -516zM420 401l235 547q0 -803 -14 -815l-10 -4q-39 0 -88 33 q-70 37 -97 88q-14 29 -26 151z" />
<glyph unicode="&#xd9;" horiz-adv-x="1175" d="M-14 1118q0 27 94 94l172 123q76 43 151 39l148 -6q29 -4 29 -27v-1030q0 -33 61 -71q55 -35 158 -60q16 -4 30.5 18.5t14.5 51.5v930q0 76 -17 100l269 113q16 -20 16 -99v-1081q0 -100 14 -129l-272 -117q-10 37 -10 131v31l-150 -145q-137 18 -251.5 100t-114.5 160 v401h-60l-157 -20l84 127h133v405l-230 12q-61 -12 -110 -61zM438 1679q0 27 20.5 51.5t51.5 24.5q27 0 51 -35l203 -282l-23 -17l-278 207q-25 25 -25 51z" />
<glyph unicode="&#xda;" horiz-adv-x="1175" d="M-12 1118q0 29 92 94l174 123q76 43 152 39l145 -6q31 -2 31 -27v-1030q0 -33 57 -70.5t160 -60.5q18 -4 32.5 17.5t14.5 52.5v930q0 74 -19 100l269 113q18 -18 18 -99v-1081q0 -100 14 -129l-274 -117l-8 131v31l-150 -145q-137 18 -251.5 100t-114.5 160v401h-60 l-159 -20l84 127h135v405l-232 12q-63 -12 -108 -61zM623 1446l22 -14l279 204q27 20 26 52q0 29 -23.5 52t-47.5 23q-29 0 -54 -34z" />
<glyph unicode="&#xdc;" horiz-adv-x="1175" d="M-12 1118q0 20 94 94q121 94 172 123q78 43 152 39l145 -6q31 -2 31 -27v-1030q0 -33 57 -70.5t160 -60.5q18 -4 32.5 17.5t14.5 52.5v930q0 74 -19 100l269 113q18 -18 18 -99v-1081q0 -100 14 -129l-272 -117q-10 37 -10 131v31l-150 -145q-137 18 -251.5 100 t-114.5 160v401h-60l-159 -20l84 127h135v405l-232 12q-63 -12 -108 -61zM418 1587q0 16 39 129q41 0 78 -22q68 -41 67 -95l-16 -61l-25 -59q-35 2 -73.5 19.5t-54 39.5t-15.5 49zM725 1587l41 129q39 1 76 -22q66 -41 65 -95l-14 -61l-23 -59q-90 4 -129 57q-16 23 -16 51 z" />
<glyph unicode="&#xdd;" horiz-adv-x="1185" d="M2 1118q0 20 94 94q121 94 172 123q80 43 154 39l143 -6q33 -2 33 -27v-976q0 -33 60.5 -72t154.5 -62q18 -4 32.5 17.5t14.5 52.5v879q0 74 -18 100l268 113q14 -14 14 -99l4 -1018q0 -59 -48 -166.5t-105 -177.5q-113 -139 -235 -237t-175 -111l-88 -10q-61 0 -150 42 t-134.5 93t-45.5 135q0 43 17 95q20 61 151 200q25 27 35 17q-41 -45 -49 -95l-2 -26q-4 -47 37 -113.5t90 -97.5q100 -63 205 -64q92 0 160.5 46.5t68.5 103.5v272l-149 -147q-137 18 -252 100t-115 160v350h-59l-160 -20l84 127h135v405l-231 12q-63 -12 -109 -61z M657 1419l27 -14l277 205q25 25 24 53q0 29 -20.5 51.5t-49.5 22.5t-53 -33z" />
<glyph unicode="&#xde;" horiz-adv-x="749" d="M-23 -94l99 123l215 325l-131 271l-68 104l-84 19q74 47 189 149l12 4q29 0 74 -49t86 -141l63 -146l186 281l-49 -2q-49 -2 -101 -31t-62 -57q-20 12 -5 80q16 68 72.5 124t108.5 56l168 -17l-297 -481q96 -215 125 -258l67 -102q49 -23 82 -23q-82 -53 -188 -147 l-13 -4q-29 0 -76 51t-83 139l-50 119l-145 -244l61 -14l43 -8l46 -7q43 0 67 41q6 -12 -4 -47q-27 -92 -98 -139q-55 -37 -111 -37l-24 4z" />
<glyph unicode="&#xdf;" horiz-adv-x="1581" d="M-59 250l14 92q18 57 170 223q10 12 18 0q-35 -39 -45 -90q-10 -49 17 -117q29 -76 100 -122q109 -72 215 -72q78 0 127 37t49 88l-14 49q-27 47 -242 182q-250 158 -323 223q-25 23 -45.5 67t-20.5 75l19 76q45 88 114.5 190t112.5 138t121 66.5t127 30.5q86 0 170 -32 l157 -62l-92 -125l-39 -120q-10 -51 -40.5 -116t-57.5 -91q-6 -4 -10 4q39 43 63 123q23 74 15 88q-18 33 -99.5 72.5t-154.5 56.5l-88 8q-39 0 -89.5 -20.5t-69 -44t-18.5 -46.5q0 -53 88 -125q43 -35 244 -159l211 -131q47 -37 86 -94.5t39 -92.5q0 -57 -39 -112 q-123 -174 -250 -287q-43 -39 -114.5 -69.5t-114.5 -30.5q-59 0 -143 43t-126 93t-42 134zM737 250q0 43 14.5 91t170.5 224q12 12 20 0q-39 -39 -47 -90q-8 -55 16 -117q33 -78 101 -122q41 -27 108.5 -49.5t108.5 -22.5q74 0 125 37t51 88l-14 49q-31 49 -242 182 q-262 166 -326 223q-25 23 -45 67t-20 75q0 35 20 76q43 90 113 191t114 137t121.5 66.5t124.5 30.5q84 0 170 -32l160 -62l-92 -125l-41 -120q-10 -51 -41 -116t-57 -91q-6 -4 -11 4q43 43 66 123q20 72 12 88l-98 71q-82 41 -156 58l-88 8q-39 0 -89.5 -20.5t-70.5 -43.5 l-16 -47q0 -53 88 -125q72 -59 246 -159q164 -96 210 -133t86 -94.5t40 -90.5q0 -53 -41 -112q-125 -178 -250 -287q-45 -39 -115.5 -69.5t-111.5 -30.5q-57 0 -142.5 43t-128.5 94t-43 133z" />
<glyph unicode="&#xe0;" horiz-adv-x="724" d="M-55 750q141 8 227 59q45 27 154 127q98 -98 274 -178q-45 -41 -45 -80v-457l68 -43l79 -22l-172 -176l-213 129l-149 -129l-125 73q-27 16 -48.5 65.5t-21.5 92.5v414q0 104 -28 125zM84 1233q0 27 20.5 51.5t51.5 24.5q27 0 51 -35l203 -283l-23 -16l-278 207 q-25 25 -25 51zM182 262q0 -55 56 -86q25 -12 63 -35q43 16 43 97v432l-135 98l-6 2q-20 0 -21 -29v-479z" />
<glyph unicode="&#xe1;" horiz-adv-x="665" d="M-57 750q141 8 227 59q45 27 154 127q98 -98 274 -178q-45 -41 -45 -80v-457l68 -43l81 -22l-172 -176l-215 129l-149 -129l-125 73q-27 16 -48.5 65.5t-21.5 92.5v414q0 104 -28 125zM180 262q0 -57 56 -86l65 -35q41 16 41 97v432q-49 22 -133 98l-8 2q-20 0 -21 -29 v-479zM276 1012l25 -17l281 207q25 25 24 51q0 27 -23.5 50.5t-47.5 23.5q-33 0 -56 -33z" />
<glyph unicode="&#xe2;" horiz-adv-x="833" d="M-66 991q47 4 120 29.5t112 52.5q37 -29 108.5 -54.5t120.5 -27.5q-53 35 -123.5 106.5t-103.5 121.5q-68 -106 -234 -228zM53 750q137 8 223 59q56 33 154 127q98 -98 275 -178q-43 -39 -43 -80v-457l65 -43l82 -22l-172 -176q-27 16 -107.5 64t-107.5 65l-150 -129 l-122 73q-27 16 -49.5 65.5t-22.5 92.5v414q0 104 -25 125zM287 262q0 -53 59 -86l64 -35q41 16 41 97v432l-134 98l-8 2q-23 0 -22 -29v-479z" />
<glyph unicode="&#xe3;" horiz-adv-x="669" d="M-59 750q139 8 225 59l153 127q99 -98 275 -178q-43 -39 -43 -80v-457l65 -43l82 -22l-172 -176l-213 129l-149 -129l-125 73q-27 16 -49.5 65.5t-22.5 92.5v414q0 102 -26 125zM96 1001q46 33 99 33l180 -33q57 0 125.5 38t93.5 83q-39 -27 -94 -26l-217 32 q-57 0 -115.5 -39.5t-71.5 -87.5zM178 262q0 -55 55 -86l64 -35q43 16 43 97v432q-49 24 -135 98l-8 2q-18 0 -19 -29v-479z" />
<glyph unicode="&#xe4;" horiz-adv-x="663" d="M-59 750q139 8 225 59q49 29 156 127q100 -100 272 -178q-43 -39 -43 -80v-457l65 -43l82 -22l-172 -176l-213 129l-149 -129l-125 73q-27 16 -49.5 65.5t-22.5 92.5v414q0 102 -26 125zM125 1085q0 20 37 119q35 0 71 -18q60 -39 60 -90l-12 -54l-23 -57q-80 4 -117 53 q-16 20 -16 47zM178 262q0 -55 55 -86l64 -35q43 16 43 97v432q-49 24 -135 98l-8 2q-18 0 -19 -29v-479zM410 1085l34 119l72 -18q62 -41 62 -90l-15 -54l-22 -57q-80 4 -117 53q-14 18 -14 47z" />
<glyph unicode="&#xe5;" horiz-adv-x="724" d="M-59 750q141 8 227 59q45 27 154 127q98 -98 274 -178q-45 -41 -45 -80v-457l67 -43l82 -22l-172 -176l-215 129l-149 -129l-125 73q-27 16 -48.5 65.5t-21.5 92.5v414q0 104 -28 125zM178 262q0 -55 58 -86l63 -35q43 16 43 97v432l-135 98l-8 2q-20 0 -21 -29v-479z M186 1163q0 -63 46.5 -107t105.5 -44t103 44t44 107t-44 107.5t-103 44.5q-63 0 -107.5 -46t-44.5 -106zM244 1163q0 41 26.5 67.5t67.5 26.5q37 0 64.5 -25.5t27.5 -68.5q0 -41 -26.5 -67.5t-65.5 -26.5q-41 0 -67.5 26.5t-26.5 67.5z" />
<glyph unicode="&#xe6;" horiz-adv-x="905" d="M-33 715q27 -18 27 -121v-393q0 -41 21.5 -87t47.5 -63l117 -71l142 124q55 -39 179 -72.5t218 -35.5q90 78 158 188q-70 -35 -183 -18q-55 8 -100 45t-45 74v129q164 111 315 174l-123 305q-119 -57 -270 -111q-82 49 -143 111q-102 -98 -146 -123q-92 -51 -215 -55z M193 252q0 -55 53 -84l61 -33q41 16 41 92v412q-53 27 -129 90l-6 4q-20 0 -20 -24v-457zM549 455l113 65l-48 123l-65 129v-317z" />
<glyph unicode="&#xe7;" horiz-adv-x="595" d="M-23 766q29 -41 29 -125v-424q0 -61 52.5 -124.5t115.5 -80.5v-143l127 25v-78q0 -27 -46 -48.5t-101 -21.5l-45 4l49 -84q53 -2 123.5 29t101.5 69v140l14 61l-170 -16v53l168 -8l174 192l-10 7q-74 -33 -188 -19q-57 6 -105.5 45t-48.5 80v510l105 -215q23 -47 0 -123 q2 -2 8 4l28 39q91 61 187 104l-125 318q-221 -100 -443 -170z" />
<glyph unicode="&#xe8;" horiz-adv-x="561" d="M-31 766q199 61 443 170l127 -318q-160 -69 -328 -182v-137q0 -41 47 -80t104 -45q115 -14 189 19l10 -7l-174 -192h-88q-80 0 -170 40t-117 83q-14 23 -14 100v424q0 88 -29 125zM0 1225q0 31 20.5 53t51.5 22q29 0 51 -32l203 -283l-23 -16l-278 207q-25 18 -25 49z M211 477l119 70l-51 127l-68 135v-332z" />
<glyph unicode="&#xe9;" horiz-adv-x="589" d="M-18 768q213 66 442 168l125 -318q-160 -72 -326 -182l-4 -137q-2 -39 47 -79t109 -46q115 -14 188 19l10 -7l-174 -192h-90q-80 0 -169 40t-115 83q-16 27 -17 100v424q0 82 -26 127zM223 477l117 70l-49 127l-68 135v-332zM252 973l24 -15l277 205q29 20 29 51 q0 29 -23.5 52.5t-48.5 23.5q-31 0 -55 -35z" />
<glyph unicode="&#xea;" horiz-adv-x="755" d="M-59 991q47 4 119.5 29.5t111.5 52.5q37 -29 107.5 -54.5t117.5 -27.5q-137 92 -225 228q-66 -104 -231 -228zM176 768q207 64 440 168l127 -318q-154 -70 -327 -182v-137q0 -39 48 -79t105 -46q113 -14 191 19l8 -7l-176 -192h-88q-80 0 -169 40t-116 83q-16 27 -16 100 v424q0 82 -27 127zM416 477l119 70l-52 127l-67 135v-332z" />
<glyph unicode="&#xeb;" horiz-adv-x="575" d="M-29 768q219 68 441 168q80 -172 127 -318q-158 -69 -332 -182l-2 -137q0 -39 49 -79t108 -46q117 -14 191 19l10 -7l-174 -192h-92q-78 0 -167 40t-116 83q-16 27 -16 100v424q0 82 -27 127zM39 1085q0 14 35 119l69 -18q62 -41 62 -90l-15 -54l-20 -57q-82 4 -117 53 q-14 20 -14 47zM213 477l117 70l-51 127q-55 135 -66 135v-332zM322 1085l34 119q39 0 70 -18q63 -39 63 -90l-14 -54l-22 -57q-82 4 -117 53q-14 20 -14 47z" />
<glyph unicode="&#xec;" horiz-adv-x="466" d="M-25 1106l35 119q43 0 72 -19q61 -39 61 -88l-12 -55l-25 -57q-80 4 -116 53q-14 18 -15 47zM20 117q61 66 62 123v428q0 72 -25 157q76 8 265 127q-27 -68 -27 -164v-528q4 -20 68.5 -52t87.5 -28l-177 -196zM258 1106q0 20 37 119l70 -19q61 -41 61 -88l-12 -55 l-23 -57q-82 4 -119 53q-14 18 -14 47z" />
<glyph unicode="&#xed;" horiz-adv-x="466" d="M-25 1106l35 119q43 0 72 -19q61 -39 61 -88l-12 -55l-25 -57q-80 4 -116 53q-14 18 -15 47zM20 117q61 66 62 123v428q0 72 -25 157q76 8 265 127q-27 -68 -27 -164v-528q4 -20 68.5 -52t87.5 -28l-177 -196zM258 1106q0 20 37 119l70 -19q61 -41 61 -88l-12 -55 l-23 -57q-82 4 -119 53q-14 18 -14 47z" />
<glyph unicode="&#xee;" horiz-adv-x="782" d="M-35 1012q47 2 119 27.5t113 54.5q72 -53 149 -72q35 -16 74 -16l2 6h4l-2 2l18 49l15 55q0 47 -62 88l-71 19l-31 -103q-57 63 -94 117q-72 -111 -234 -227zM334 117q59 63 59 123l2 428q0 63 -26 157q78 8 266 127q-25 -74 -25 -164v-528q4 -23 65.5 -54.5t88.5 -25.5 l-176 -196zM571 1106q0 20 37 119l70 -19q61 -41 61 -88l-14 -55l-20 -57q-82 4 -119 53q-14 18 -15 47z" />
<glyph unicode="&#xef;" horiz-adv-x="487" d="M-6 1106l35 119l71 -19q61 -41 62 -88l-12 -55l-25 -57q-80 4 -117 53q-14 18 -14 47zM39 117q61 66 61 123v428q0 72 -24 157q76 8 264 127q-27 -68 -27 -164v-528q4 -20 68.5 -52t87.5 -28l-176 -196zM276 1106q0 20 37 119l70 -19q61 -41 61 -88l-12 -55l-22 -57 q-82 4 -119 53q-14 18 -15 47z" />
<glyph unicode="&#xf0;" horiz-adv-x="708" d="M-23 492q6 -74 88 -236t177 -283q113 63 338 308q31 33 55 97t24 109q0 57 -57 214t-125 290h178l62 119q-29 -14 -78 -14h-213l-47 98q-31 66 -4 168l-56 -31q-53 -29 -97 -85t-44 -89l6 -61h-141l-66 -117l86 12h154l53 -102q-158 -78 -223 -158q-31 -37 -52.5 -111.5 t-17.5 -127.5zM178 670q0 49 25.5 104t56.5 70q35 4 39 -8q70 -121 126 -285t56 -240q0 -84 -41 -125q-16 -16 -34 -16q-27 0 -54 31q-102 145 -139 268q-35 115 -35 201z" />
<glyph unicode="&#xf1;" horiz-adv-x="847" d="M-63 772l184 143l47 -4q35 -18 74 -71.5t51 -98.5q66 43 158 152l153 -16q27 -12 47.5 -53.5t20.5 -78.5v-462q0 -25 29.5 -56.5t64.5 -48t55 -12.5l-153 -193q-72 35 -136 88q-78 68 -77 113v449q0 51 -31 79.5t-117 24.5l-16 -14v-463q0 -35 149 -88l-172 -189 q-131 84 -256 136q25 20 44.5 58t19.5 62v441q-33 78 -78 94zM152 1001q41 33 98 33l178 -33q57 0 126 38t93 83q-39 -27 -94 -26l-215 32q-57 0 -115.5 -39.5t-70.5 -87.5z" />
<glyph unicode="&#xf2;" horiz-adv-x="665" d="M-47 745q129 12 213 60q63 35 156 123q188 -131 299 -180q-39 -35 -39 -76v-430l30 -35q-59 -29 -152 -96.5t-147 -122.5q-16 -16 -39 -17q-31 0 -73 25l-244 137q39 23 39 119v369q0 37 -13.5 75.5t-29.5 48.5zM63 1233q0 27 23 51.5t49 24.5q29 0 53 -35l203 -283 l-22 -16l-279 207q-27 20 -27 51zM207 248q0 -37 57 -74l82 -41q25 25 25 72v471l-135 90l-11 2q-18 0 -18 -29v-491z" />
<glyph unicode="&#xf3;" horiz-adv-x="657" d="M-49 745q129 12 213 60q63 35 155 123q188 -131 299 -180q-39 -35 -38 -76v-430l30 -35q-59 -29 -152 -96.5t-147 -122.5q-16 -16 -39 -17q-31 0 -73 25l-244 137q39 23 39 121v367q0 37 -13.5 75.5t-29.5 48.5zM205 248q0 -37 57 -74l84 -41q23 23 23 72v471l-136 90 l-10 2q-18 0 -18 -29v-491zM258 973l25 -17l276 207q29 20 29 51q0 29 -23.5 52.5t-48.5 23.5q-31 0 -55 -35z" />
<glyph unicode="&#xf4;" horiz-adv-x="839" d="M-39 991q47 4 118.5 29.5t110.5 52.5q37 -29 109 -54.5t119 -27.5q-137 92 -225 228q-66 -104 -232 -228zM135 745q129 12 211 60q72 41 158 123q188 -131 299 -180q-39 -35 -39 -76v-430l31 -35q-59 -29 -152.5 -96.5t-146.5 -122.5q-16 -16 -41 -17q-29 0 -72 25 l-246 137q39 23 39 121v367q0 100 -41 124zM387 248q0 -35 59 -74l82 -41q25 25 25 72v471l-135 90l-8 2q-23 0 -23 -29v-491z" />
<glyph unicode="&#xf5;" horiz-adv-x="649" d="M-49 745q129 12 213 60q63 35 160 123q193 -133 297 -180q-39 -35 -39 -76l-2 -430l32 -35q-59 -29 -152 -96.5t-147 -122.5q-16 -16 -41 -17q-31 0 -73 25l-244 137q39 23 39 121v367q0 37 -13.5 75.5t-29.5 48.5zM82 1001q41 33 98 33l178 -33q57 0 126 38t94 83 q-39 -27 -95 -26l-215 32q-57 0 -115.5 -39.5t-70.5 -87.5zM205 248q0 -35 59 -74l82 -41q23 23 23 72v471l-133 90l-9 2q-23 0 -22 -29v-491z" />
<glyph unicode="&#xf6;" horiz-adv-x="653" d="M-49 745q129 12 213 60q63 35 155 123q188 -131 299 -180q-39 -35 -38 -76v-430l30 -35q-59 -29 -152 -96.5t-147 -122.5q-16 -16 -39 -17q-31 0 -73 25l-244 137q39 23 39 121v367q0 37 -13.5 75.5t-29.5 48.5zM98 1085l35 119l72 -18q61 -41 61 -90l-12 -54l-25 -57 q-80 4 -116 53q-14 18 -15 47zM205 248q0 -37 57 -74l82 -41q25 25 25 72v471l-136 90l-10 2q-18 0 -18 -29v-491zM381 1085q0 20 37 119l69 -18q61 -41 62 -90l-12 -54l-23 -57q-82 4 -119 53q-14 18 -14 47z" />
<glyph unicode="&#xf7;" />
<glyph unicode="&#xf8;" horiz-adv-x="690" d="M-20 745q41 -25 40 -124v-369q0 -94 -36 -119l118 -67l-102 -224l86 31l68 164l73 -41q45 -25 72 -25q29 0 41 17q154 154 297 219l-29 35v430q0 39 37 76l-147 83l98 209l-92 -43l-55 -135l-99 66q-90 -86 -160 -123q-98 -51 -210 -60zM233 231l162 373v-399 q0 -49 -22 -72l-82 41q-53 33 -58 57zM233 358v381q0 29 21 29l6 -4l115 -76z" />
<glyph unicode="&#xf9;" horiz-adv-x="815" d="M-55 774l153 129q4 4 15 4q8 0 14 -4q55 -20 101 -85.5t46 -106.5v-414q0 -43 47.5 -76t104.5 -28q16 4 16 43v389q0 33 -30 82l-68 63l-20 4l153 129q12 8 31 0q55 -20 100 -85.5t45 -106.5v-426q0 -27 32 -61t71 -50l51 -6l-160 -195q-78 43 -142.5 106.5t-62.5 92.5 l-131 -180q-53 -2 -114.5 8t-82 24.5t-38 64.5t-17.5 95v445q0 43 -28 80l-68 61zM80 1233q0 27 20.5 51.5t51.5 24.5q27 0 51 -35l203 -283l-23 -16l-279 207q-25 25 -24 51z" />
<glyph unicode="&#xfa;" horiz-adv-x="823" d="M-61 774l153 129q12 8 31 0q59 -23 100 -84q45 -68 45 -108v-414q0 -43 47 -76t105 -28q16 4 16 43v389q0 37 -28 82l-68 63l-21 4l152 129q12 8 33 0q57 -23 98 -84q45 -68 45 -108v-426q0 -27 33 -61t72 -50l49 -8l-158 -193q-78 43 -142.5 106.5t-62.5 92.5l-133 -180 q-51 -2 -112.5 8t-82 24.5t-38 64.5t-17.5 95v445q0 39 -28 80l-68 61zM268 991l25 -14l280 205q27 18 27 51q0 29 -23.5 52.5t-48.5 23.5q-29 0 -53 -35z" />
<glyph unicode="&#xfc;" horiz-adv-x="821" d="M-61 774l153 129q12 8 31 0q59 -23 100 -84q45 -68 45 -108v-414q0 -43 47 -76t105 -28q16 4 16 43v389q0 37 -28 82l-68 63l-21 4l152 129q12 8 33 0q57 -23 98 -84q45 -68 45 -108v-426q0 -27 33 -61t72 -50l49 -8l-158 -193q-78 45 -142.5 107.5t-62.5 91.5l-131 -180 q-53 -2 -114.5 8t-82 24.5t-38 64.5t-17.5 95v445q0 39 -28 80l-68 61zM123 1085q0 20 37 119l71 -18q60 -39 60 -90l-15 -54l-20 -57q-82 4 -117 53q-16 23 -16 47zM408 1085q0 14 34 119l72 -18q61 -41 61 -90q0 -20 -16 -54l-20 -57q-82 4 -117 53q-14 20 -14 47z" />
<glyph unicode="&#xfd;" horiz-adv-x="737" d="M-70 748l37 -3q31 -2 45 -16q43 -37 70 -104v-369l-12 -82q-14 -33 -52 -70l41 -8l256 -127l70 88l92 93v-56q0 -90 27 -162l76 -120l-9 -27q-25 -45 -92 -45q-43 0 -115.5 25.5t-115.5 55t-77 70.5t-34 62q0 37 29 74l-14 -4q-45 -33 -81 -97.5t-36 -109.5 q0 -29 21.5 -68t45.5 -57q49 -35 117 -64.5t103 -29.5q47 0 127.5 49t130 106.5t91.5 133t42 106.5l-13 57q-12 37 -12 51v584q0 57 33 90q-106 49 -252 139q-74 -98 -168 -172l68 -20l108 -74v-424q0 -29 -20 -57l-45 2l-121 61v482q-12 80 -72 139q-51 51 -88 51l-12 -4 q-109 -100 -189 -149zM322 991l22 -14l279 205q25 25 24 51q0 31 -22.5 53.5t-46.5 22.5q-29 0 -54 -35z" />
<glyph unicode="&#xfe;" />
<glyph unicode="&#xff;" horiz-adv-x="761" d="M-68 748l37 -3l45 -16q43 -37 70 -104v-369q0 -57 -12 -82l-52 -70l41 -8l254 -127l72 88l92 93v-56q0 -90 27 -162l76 -120l-9 -27q-25 -45 -92 -45q-45 0 -117.5 25.5t-114.5 55t-76 70.5t-34 62q0 37 29 74l-14 -4q-45 -33 -81 -97.5t-36 -109.5q0 -29 21.5 -68 t45.5 -57q49 -35 117 -64.5t101 -29.5q47 0 128.5 49t131 106.5t91.5 133t42 106.5l-15 57q-12 49 -12 51v584q0 55 35 90q-106 49 -252 139q-74 -98 -168 -172l68 -20l108 -74v-424q0 -29 -20 -57l-47 2l-119 61v482q-12 78 -72 139q-49 51 -88 51l-12 -4 q-109 -100 -189 -149zM162 1085q0 20 37 119l69 -18q64 -39 64 -90l-15 -54l-22 -57q-82 4 -117 53q-16 23 -16 47zM444 1085q0 14 39 119l68 -18q63 -39 63 -90l-14 -54l-20 -57q-82 4 -119 53q-16 20 -17 47z" />
<glyph unicode="&#x2000;" horiz-adv-x="888" />
<glyph unicode="&#x2001;" horiz-adv-x="1776" />
<glyph unicode="&#x2002;" horiz-adv-x="888" />
<glyph unicode="&#x2003;" horiz-adv-x="1776" />
<glyph unicode="&#x2004;" horiz-adv-x="592" />
<glyph unicode="&#x2005;" horiz-adv-x="444" />
<glyph unicode="&#x2006;" horiz-adv-x="296" />
<glyph unicode="&#x2007;" horiz-adv-x="296" />
<glyph unicode="&#x2008;" horiz-adv-x="222" />
<glyph unicode="&#x2009;" horiz-adv-x="355" />
<glyph unicode="&#x200a;" horiz-adv-x="98" />
<glyph unicode="&#x2013;" />
<glyph unicode="&#x2018;" horiz-adv-x="350" d="M2 1292q0 31 20.5 53.5t51.5 22.5q29 0 51 -33l203 -282l-23 -17l-278 207q-25 18 -25 49z" />
<glyph unicode="&#x2019;" horiz-adv-x="229" d="M0 1251q0 16 39 133q45 0 80 -22q70 -45 69 -98l-6 -37l-55 -109q-14 -29 -39 -52.5t-33 -21.5q33 70 17 109q-35 16 -56 47q-16 25 -16 51z" />
<glyph unicode="&#x202f;" horiz-adv-x="355" />
<glyph unicode="&#x205f;" horiz-adv-x="444" />
<glyph unicode="&#xe000;" horiz-adv-x="901" d="M0 0v901h901v-901h-901z" />
</font>
</defs>
</svg>
